  0
SECTION
  2
HEADER
  9
$ACADVER
  1
AC1032
  9
$ACADMAINTVER
 90
      228
  9
$DWGCODEPAGE
  3
ANSI_949
  9
$REQUIREDVERSIONS
160
                 0
  9
$INSBASE
 10
0.0
 20
0.0
 30
0.0
  9
$EXTMIN
 10
1.000000000000000E+20
 20
1.000000000000000E+20
 30
1.000000000000000E+20
  9
$EXTMAX
 10
-1.000000000000000E+20
 20
-1.000000000000000E+20
 30
-1.000000000000000E+20
  9
$LIMMIN
 10
0.0
 20
0.0
  9
$LIMMAX
 10
12.0
 20
9.0
  9
$ORTHOMODE
 70
     0
  9
$REGENMODE
 70
     1
  9
$FILLMODE
 70
     1
  9
$QTEXTMODE
 70
     0
  9
$MIRRTEXT
 70
     0
  9
$LTSCALE
 40
1.0
  9
$ATTMODE
 70
     1
  9
$TEXTSIZE
 40
0.2
  9
$TRACEWID
 40
0.05
  9
$TEXTSTYLE
  7
Standard
  9
$CLAYER
  8
0
  9
$CELTYPE
  6
ByLayer
  9
$CECOLOR
 62
   256
  9
$CELTSCALE
 40
1.0
  9
$DISPSILH
 70
     0
  9
$DIMSCALE
 40
1.0
  9
$DIMASZ
 40
0.18
  9
$DIMEXO
 40
0.0625
  9
$DIMDLI
 40
0.38
  9
$DIMRND
 40
0.0
  9
$DIMDLE
 40
0.0
  9
$DIMEXE
 40
0.18
  9
$DIMTP
 40
0.0
  9
$DIMTM
 40
0.0
  9
$DIMTXT
 40
0.18
  9
$DIMCEN
 40
0.09
  9
$DIMTSZ
 40
0.0
  9
$DIMTOL
 70
     0
  9
$DIMLIM
 70
     0
  9
$DIMTIH
 70
     1
  9
$DIMTOH
 70
     1
  9
$DIMSE1
 70
     0
  9
$DIMSE2
 70
     0
  9
$DIMTAD
 70
     0
  9
$DIMZIN
 70
     0
  9
$DIMBLK
  1

  9
$DIMASO
 70
     1
  9
$DIMSHO
 70
     1
  9
$DIMPOST
  1

  9
$DIMAPOST
  1

  9
$DIMALT
 70
     0
  9
$DIMALTD
 70
     2
  9
$DIMALTF
 40
25.4
  9
$DIMLFAC
 40
1.0
  9
$DIMTOFL
 70
     0
  9
$DIMTVP
 40
0.0
  9
$DIMTIX
 70
     0
  9
$DIMSOXD
 70
     0
  9
$DIMSAH
 70
     0
  9
$DIMBLK1
  1

  9
$DIMBLK2
  1

  9
$DIMSTYLE
  2
Standard
  9
$DIMCLRD
 70
     0
  9
$DIMCLRE
 70
     0
  9
$DIMCLRT
 70
     0
  9
$DIMTFAC
 40
1.0
  9
$DIMGAP
 40
0.09
  9
$DIMJUST
 70
     0
  9
$DIMSD1
 70
     0
  9
$DIMSD2
 70
     0
  9
$DIMTOLJ
 70
     1
  9
$DIMTZIN
 70
     0
  9
$DIMALTZ
 70
     0
  9
$DIMALTTZ
 70
     0
  9
$DIMUPT
 70
     0
  9
$DIMDEC
 70
     4
  9
$DIMTDEC
 70
     4
  9
$DIMALTU
 70
     2
  9
$DIMALTTD
 70
     2
  9
$DIMTXSTY
  7
Standard
  9
$DIMAUNIT
 70
     0
  9
$DIMADEC
 70
     0
  9
$DIMALTRND
 40
0.0
  9
$DIMAZIN
 70
     0
  9
$DIMDSEP
 70
    46
  9
$DIMATFIT
 70
     3
  9
$DIMFRAC
 70
     0
  9
$DIMLDRBLK
  1

  9
$DIMLUNIT
 70
     2
  9
$DIMLWD
 70
    -2
  9
$DIMLWE
 70
    -2
  9
$DIMTMOVE
 70
     0
  9
$DIMFXL
 40
1.0
  9
$DIMFXLON
 70
     0
  9
$DIMJOGANG
 40
0.7853981633974483
  9
$DIMTFILL
 70
     0
  9
$DIMTFILLCLR
 70
     0
  9
$DIMARCSYM
 70
     0
  9
$DIMLTYPE
  6

  9
$DIMLTEX1
  6

  9
$DIMLTEX2
  6

  9
$DIMTXTDIRECTION
 70
     0
  9
$LUNITS
 70
     2
  9
$LUPREC
 70
     4
  9
$SKETCHINC
 40
0.1
  9
$FILLETRAD
 40
0.0
  9
$AUNITS
 70
     0
  9
$AUPREC
 70
     0
  9
$MENU
  1
.
  9
$ELEVATION
 40
0.0
  9
$PELEVATION
 40
0.0
  9
$THICKNESS
 40
0.0
  9
$LIMCHECK
 70
     0
  9
$CHAMFERA
 40
0.0
  9
$CHAMFERB
 40
0.0
  9
$CHAMFERC
 40
0.0
  9
$CHAMFERD
 40
0.0
  9
$SKPOLY
 70
     0
  9
$TDCREATE
 40
2460640.451550926
  9
$TDUCREATE
 40
2460640.076550926
  9
$TDUPDATE
 40
2460640.451550926
  9
$TDUUPDATE
 40
2460640.076550926
  9
$TDINDWG
 40
0.0000115741
  9
$TDUSRTIMER
 40
0.0000115741
  9
$USRTIMER
 70
     1
  9
$ANGBASE
 50
0.0
  9
$ANGDIR
 70
     0
  9
$PDMODE
 70
     0
  9
$PDSIZE
 40
0.0
  9
$PLINEWID
 40
0.0
  9
$SPLFRAME
 70
     0
  9
$SPLINETYPE
 70
     6
  9
$SPLINESEGS
 70
     8
  9
$HANDSEED
  5
B7
  9
$SURFTAB1
 70
     6
  9
$SURFTAB2
 70
     6
  9
$SURFTYPE
 70
     6
  9
$SURFU
 70
     6
  9
$SURFV
 70
     6
  9
$UCSBASE
  2

  9
$UCSNAME
  2

  9
$UCSORG
 10
0.0
 20
0.0
 30
0.0
  9
$UCSXDIR
 10
1.0
 20
0.0
 30
0.0
  9
$UCSYDIR
 10
0.0
 20
1.0
 30
0.0
  9
$UCSORTHOREF
  2

  9
$UCSORTHOVIEW
 70
     0
  9
$UCSORGTOP
 10
0.0
 20
0.0
 30
0.0
  9
$UCSORGBOTTOM
 10
0.0
 20
0.0
 30
0.0
  9
$UCSORGLEFT
 10
0.0
 20
0.0
 30
0.0
  9
$UCSORGRIGHT
 10
0.0
 20
0.0
 30
0.0
  9
$UCSORGFRONT
 10
0.0
 20
0.0
 30
0.0
  9
$UCSORGBACK
 10
0.0
 20
0.0
 30
0.0
  9
$PUCSBASE
  2

  9
$PUCSNAME
  2

  9
$PUCSORG
 10
0.0
 20
0.0
 30
0.0
  9
$PUCSXDIR
 10
1.0
 20
0.0
 30
0.0
  9
$PUCSYDIR
 10
0.0
 20
1.0
 30
0.0
  9
$PUCSORTHOREF
  2

  9
$PUCSORTHOVIEW
 70
     0
  9
$PUCSORGTOP
 10
0.0
 20
0.0
 30
0.0
  9
$PUCSORGBOTTOM
 10
0.0
 20
0.0
 30
0.0
  9
$PUCSORGLEFT
 10
0.0
 20
0.0
 30
0.0
  9
$PUCSORGRIGHT
 10
0.0
 20
0.0
 30
0.0
  9
$PUCSORGFRONT
 10
0.0
 20
0.0
 30
0.0
  9
$PUCSORGBACK
 10
0.0
 20
0.0
 30
0.0
  9
$USERI1
 70
     0
  9
$USERI2
 70
     0
  9
$USERI3
 70
     0
  9
$USERI4
 70
     0
  9
$USERI5
 70
     0
  9
$USERR1
 40
0.0
  9
$USERR2
 40
0.0
  9
$USERR3
 40
0.0
  9
$USERR4
 40
0.0
  9
$USERR5
 40
0.0
  9
$WORLDVIEW
 70
     1
  9
$SHADEDGE
 70
     3
  9
$SHADEDIF
 70
    70
  9
$TILEMODE
 70
     1
  9
$MAXACTVP
 70
    64
  9
$PINSBASE
 10
0.0
 20
0.0
 30
0.0
  9
$PLIMCHECK
 70
     0
  9
$PEXTMIN
 10
1.000000000000000E+20
 20
1.000000000000000E+20
 30
1.000000000000000E+20
  9
$PEXTMAX
 10
-1.000000000000000E+20
 20
-1.000000000000000E+20
 30
-1.000000000000000E+20
  9
$PLIMMIN
 10
0.0
 20
0.0
  9
$PLIMMAX
 10
12.0
 20
9.0
  9
$UNITMODE
 70
     0
  9
$VISRETAIN
 70
     1
  9
$PLINEGEN
 70
     0
  9
$PSLTSCALE
 70
     1
  9
$TREEDEPTH
 70
  3020
  9
$CMLSTYLE
  2
Standard
  9
$CMLJUST
 70
     0
  9
$CMLSCALE
 40
1.0
  9
$PROXYGRAPHICS
 70
     1
  9
$MEASUREMENT
 70
     0
  9
$CELWEIGHT
370
    -1
  9
$ENDCAPS
280
     0
  9
$JOINSTYLE
280
     0
  9
$LWDISPLAY
290
     1
  9
$INSUNITS
 70
     0
  9
$HYPERLINKBASE
  1

  9
$STYLESHEET
  1

  9
$XEDIT
290
     1
  9
$CEPSNTYPE
380
     0
  9
$PSTYLEMODE
290
     1
  9
$FINGERPRINTGUID
  2
{6FA50EA1-0892-9D47-8381-90DE162CEF84}
  9
$VERSIONGUID
  2
{223BB067-7BAB-F341-9745-F2179BCB9527}
  9
$EXTNAMES
290
     1
  9
$PSVPSCALE
 40
0.0
  9
$OLESTARTUP
290
     0
  9
$SORTENTS
280
   127
  9
$INDEXCTL
280
     0
  9
$HIDETEXT
280
     1
  9
$XCLIPFRAME
280
     2
  9
$HALOGAP
280
     0
  9
$OBSCOLOR
 70
   257
  9
$OBSLTYPE
280
     0
  9
$INTERSECTIONDISPLAY
280
     0
  9
$INTERSECTIONCOLOR
 70
   257
  9
$DIMASSOC
280
     2
  9
$PROJECTNAME
  1

  9
$CAMERADISPLAY
290
     0
  9
$LENSLENGTH
 40
50.0
  9
$CAMERAHEIGHT
 40
0.0
  9
$STEPSPERSEC
 40
2.0
  9
$STEPSIZE
 40
6.0
  9
$3DDWFPREC
 40
2.0
  9
$PSOLWIDTH
 40
0.25
  9
$PSOLHEIGHT
 40
4.0
  9
$LOFTANG1
 40
1.570796326794896
  9
$LOFTANG2
 40
1.570796326794896
  9
$LOFTMAG1
 40
0.0
  9
$LOFTMAG2
 40
0.0
  9
$LOFTPARAM
 70
     7
  9
$LOFTNORMALS
280
     1
  9
$LATITUDE
 40
37.795
  9
$LONGITUDE
 40
-122.394
  9
$NORTHDIRECTION
 40
0.0
  9
$TIMEZONE
 70
 -8000
  9
$LIGHTGLYPHDISPLAY
280
     1
  9
$TILEMODELIGHTSYNCH
280
     1
  9
$CMATERIAL
347
11
  9
$SOLIDHIST
280
     0
  9
$SHOWHIST
280
     1
  9
$DWFFRAME
280
     2
  9
$DGNFRAME
280
     0
  9
$REALWORLDSCALE
290
     1
  9
$INTERFERECOLOR
 62
     1
  9
$INTERFEREOBJVS
345
33
  9
$INTERFEREVPVS
346
30
  9
$CSHADOW
280
     0
  9
$SHADOWPLANELOCATION
 40
0.0
  0
ENDSEC
  0
SECTION
  2
CLASSES
  0
CLASS
  1
ACDBDICTIONARYWDFLT
  2
AcDbDictionaryWithDefault
  3
ObjectDBX Classes
 90
        0
 91
        1
280
     0
281
     0
  0
CLASS
  1
MATERIAL
  2
AcDbMaterial
  3
ObjectDBX Classes
 90
     1153
 91
        3
280
     0
281
     0
  0
CLASS
  1
VISUALSTYLE
  2
AcDbVisualStyle
  3
ObjectDBX Classes
 90
     4095
 91
       24
280
     0
281
     0
  0
CLASS
  1
SCALE
  2
AcDbScale
  3
ObjectDBX Classes
 90
     1153
 91
       17
280
     0
281
     0
  0
CLASS
  1
TABLESTYLE
  2
AcDbTableStyle
  3
ObjectDBX Classes
 90
     4095
 91
        1
280
     0
281
     0
  0
CLASS
  1
MLEADERSTYLE
  2
AcDbMLeaderStyle
  3
ACDB_MLEADERSTYLE_CLASS
 90
     4095
 91
        1
280
     0
281
     0
  0
CLASS
  1
ACDBSECTIONVIEWSTYLE
  2
AcDbSectionViewStyle
  3
ObjectDBX Classes
 90
     1025
 91
        1
280
     0
281
     0
  0
CLASS
  1
ACDBDETAILVIEWSTYLE
  2
AcDbDetailViewStyle
  3
ObjectDBX Classes
 90
     1025
 91
        1
280
     0
281
     0
  0
CLASS
  1
IMAGEDEF
  2
AcDbRasterImageDef
  3
ISM
 90
        0
 91
        2
280
     0
281
     0
  0
CLASS
  1
IMAGE
  2
AcDbRasterImage
  3
ISM
 90
     2175
 91
        2
280
     0
281
     1
  0
CLASS
  1
DICTIONARYVAR
  2
AcDbDictionaryVar
  3
ObjectDBX Classes
 90
        0
 91
        5
280
     0
281
     0
  0
CLASS
  1
CELLSTYLEMAP
  2
AcDbCellStyleMap
  3
ObjectDBX Classes
 90
     1152
 91
        1
280
     0
281
     0
  0
ENDSEC
  0
SECTION
  2
TABLES
  0
TABLE
  2
VPORT
  5
8
330
0
100
AcDbSymbolTable
 70
     1
  0
VPORT
  5
57
330
8
100
AcDbSymbolTableRecord
100
AcDbViewportTableRecord
  2
*Active
 70
     0
 10
0.0
 20
0.0
 11
1.0
 21
1.0
 12
0.0
 22
0.0
 13
0.0
 23
0.0
 14
1.0
 24
1.0
 15
0.0
 25
0.0
 16
0.0
 26
0.0
 36
1.0
 17
297.6379999999999
 27
420.9450000000002
 37
0.0
 40
858.7278000000003
 41
0.7070709950231024
 42
50.0
 43
0.0
 44
0.0
 50
0.0
 51
0.0
 71
     0
 72
   100
 73
     1
 74
     1
 75
     0
 76
     0
 77
     0
 78
     0
281
     0
 65
     1
110
0.0
120
0.0
130
0.0
111
1.0
121
0.0
131
0.0
112
0.0
122
1.0
132
0.0
 79
     0
146
0.0
 60
     3
 61
     5
292
     1
282
     1
141
0.0
142
0.0
 63
   250
421
  3355443
  0
ENDTAB
  0
TABLE
  2
LTYPE
  5
5
330
0
100
AcDbSymbolTable
 70
     1
  0
LTYPE
  5
5B
330
5
100
AcDbSymbolTableRecord
100
AcDbLinetypeTableRecord
  2
ByBlock
 70
     0
  3

 72
    65
 73
     0
 40
0.0
  0
LTYPE
  5
5C
330
5
100
AcDbSymbolTableRecord
100
AcDbLinetypeTableRecord
  2
ByLayer
 70
     0
  3

 72
    65
 73
     0
 40
0.0
  0
LTYPE
  5
5D
330
5
100
AcDbSymbolTableRecord
100
AcDbLinetypeTableRecord
  2
Continuous
 70
     0
  3
Solid line
 72
    65
 73
     0
 40
0.0
  0
ENDTAB
  0
TABLE
  2
LAYER
  5
2
330
0
100
AcDbSymbolTable
 70
     2
  0
LAYER
  5
54
330
2
100
AcDbSymbolTableRecord
100
AcDbLayerTableRecord
  2
0
 70
     0
 62
     7
  6
Continuous
370
    -3
390
F
347
21
348
0
  0
LAYER
  5
78
330
2
100
AcDbSymbolTableRecord
100
AcDbLayerTableRecord
  2
Layer 1
 70
     0
 62
     7
  6
Continuous
370
     0
390
F
347
21
348
0
  0
ENDTAB
  0
TABLE
  2
STYLE
  5
3
330
0
100
AcDbSymbolTable
 70
     2
  0
STYLE
  5
55
330
3
100
AcDbSymbolTableRecord
100
AcDbTextStyleTableRecord
  2
Standard
 70
     0
 40
0.0
 41
1.0
 50
0.0
 71
     0
 42
0.2
  3
txt
  4

  0
STYLE
  5
5A
330
3
100
AcDbSymbolTableRecord
100
AcDbTextStyleTableRecord
  2
Annotative
 70
     0
 40
0.0
 41
1.0
 50
0.0
 71
     0
 42
0.2
  3
txt
  4

1001
AcadAnnotative
1000
AnnotativeData
1002
{
1070
     1
1070
     1
1002
}
  0
ENDTAB
  0
TABLE
  2
VIEW
  5
6
330
0
100
AcDbSymbolTable
 70
     0
  0
ENDTAB
  0
TABLE
  2
UCS
  5
7
330
0
100
AcDbSymbolTable
 70
     0
  0
ENDTAB
  0
TABLE
  2
APPID
  5
9
330
0
100
AcDbSymbolTable
 70
     2
  0
APPID
  5
56
330
9
100
AcDbSymbolTableRecord
100
AcDbRegAppTableRecord
  2
ACAD
 70
     0
  0
APPID
  5
5E
330
9
100
AcDbSymbolTableRecord
100
AcDbRegAppTableRecord
  2
AcadAnnotative
 70
     0
  0
ENDTAB
  0
TABLE
  2
DIMSTYLE
  5
A
330
0
100
AcDbSymbolTable
 70
     2
100
AcDbDimStyleTable
 71
     0
  0
DIMSTYLE
105
58
330
A
100
AcDbSymbolTableRecord
100
AcDbDimStyleTableRecord
  2
Standard
 70
     0
340
55
  0
DIMSTYLE
105
59
330
A
100
AcDbSymbolTableRecord
100
AcDbDimStyleTableRecord
  2
Annotative
 70
     0
340
55
1001
AcadAnnotative
1000
AnnotativeData
1002
{
1070
     1
1070
     1
1002
}
  0
ENDTAB
  0
TABLE
  2
BLOCK_RECORD
  5
1
330
0
100
AcDbSymbolTable
 70
     5
  0
BLOCK_RECORD
  5
70
330
1
100
AcDbSymbolTableRecord
100
AcDbBlockTableRecord
  2
*Model_Space
340
73
 70
     0
280
     1
281
     0
  0
BLOCK_RECORD
  5
6C
330
1
100
AcDbSymbolTableRecord
100
AcDbBlockTableRecord
  2
*Paper_Space
340
6F
 70
     0
280
     1
281
     0
  0
BLOCK_RECORD
  5
74
330
1
100
AcDbSymbolTableRecord
100
AcDbBlockTableRecord
  2
*Paper_Space0
340
77
 70
     0
280
     1
281
     0
  0
BLOCK_RECORD
  5
79
330
1
100
AcDbSymbolTableRecord
100
AcDbBlockTableRecord
  2
Block_0
340
0
102
{BLKREFS
331
7A
102
}
 70
     0
280
     1
281
     0
  0
BLOCK_RECORD
  5
86
330
1
100
AcDbSymbolTableRecord
100
AcDbBlockTableRecord
  2
Block_1
340
0
102
{BLKREFS
331
87
102
}
 70
     0
280
     1
281
     0
  0
BLOCK_RECORD
  5
8E
330
1
100
AcDbSymbolTableRecord
100
AcDbBlockTableRecord
  2
Block_2
340
0
102
{BLKREFS
331
8F
102
}
 70
     0
280
     1
281
     0
  0
BLOCK_RECORD
  5
A2
330
1
100
AcDbSymbolTableRecord
100
AcDbBlockTableRecord
  2
Block_3
340
0
102
{BLKREFS
331
A3
102
}
 70
     0
280
     1
281
     0
  0
ENDTAB
  0
ENDSEC
  0
SECTION
  2
BLOCKS
  0
BLOCK
  5
71
330
70
100
AcDbEntity
  8
0
100
AcDbBlockBegin
  2
*Model_Space
 70
     0
 10
0.0
 20
0.0
 30
0.0
  3
*Model_Space
  1

  0
ENDBLK
  5
72
330
70
100
AcDbEntity
  8
0
100
AcDbBlockEnd
  0
BLOCK
  5
6D
330
6C
100
AcDbEntity
 67
     1
  8
0
100
AcDbBlockBegin
  2
*Paper_Space
 70
     0
 10
0.0
 20
0.0
 30
0.0
  3
*Paper_Space
  1

  0
ENDBLK
  5
6E
330
6C
100
AcDbEntity
 67
     1
  8
0
100
AcDbBlockEnd
  0
BLOCK
  5
75
330
74
100
AcDbEntity
 67
     1
  8
0
100
AcDbBlockBegin
  2
*Paper_Space0
 70
     0
 10
0.0
 20
0.0
 30
0.0
  3
*Paper_Space0
  1

  0
ENDBLK
  5
76
330
74
100
AcDbEntity
 67
     1
  8
0
100
AcDbBlockEnd
  0
BLOCK
  5
7B
330
79
100
AcDbEntity
  8
0
100
AcDbBlockBegin
  2
Block_0
 70
     0
 10
0.0
 20
0.0
 30
0.0
  3
Block_0
  1

  0
IMAGE
  5
7F
330
79
100
AcDbEntity
  8
Layer 1
160
               140
310
8C000000010000008400000006000000050000000062DDF56DC35F400000000070CC734000000000000000000062DDF56DC35F4000000000380E844000000000000000008058777DDB407C4000000000380E844000000000000000008058777DDB407C400000000070CC734000000000000000000062DDF56DC35F40000000
310
0070CC73400000000000000000
100
AcDbRasterImage
 90
        0
 10
127.0535864507619
 20
316.77734375
 30
0.0
 11
0.2708333333333333
 21
0.0
 31
0.0
 12
0.0
 22
0.2708333333333333
 32
0.0
 13
1200.0
 23
1200.0
340
7E
 70
     3
280
     0
281
    50
282
    50
283
     0
290
     0
360
0
 71
     1
 91
        2
 14
-0.5
 24
-0.5
 14
1199.5
 24
1199.5
  0
CIRCLE
  5
80
330
79
100
AcDbEntity
  8
Layer 1
100
AcDbCircle
 10
289.5535864507617
 20
483.5018335459192
 30
0.0
 40
123.4285714285711
  0
HATCH
  5
81
330
79
100
AcDbEntity
  8
Layer 1
 62
    18
420
        0
440
 33554551
100
AcDbHatch
 10
0.0
 20
0.0
 30
0.0
210
0.0
220
0.0
230
1.0
  2
SOLID
 70
     1
 71
     1
 91
        1
 92
        1
 93
        1
 72
     2
 10
289.5535864507617
 20
483.5018335459192
 40
123.4285714285711
 50
0.0
 51
360.0
 73
     1
 97
        1
330
80
 75
     2
 76
     1
 98
        1
 10
0.0
 20
0.0
450
        0
451
        0
460
0.0
461
0.0
452
        0
462
0.0
453
        0
470

  0
MTEXT
  5
82
330
79
100
AcDbEntity
  8
Layer 1
100
AcDbMText
 10
217.7656192779541
 20
512.1668834686279
 30
0.0
 40
0.2
 41
0.0
 46
0.0
 71
     7
 72
     1
  1
\C7;\c16777215;\FHancom Gothic Regular|b0|i0|c129;\H7.788000;\W1.000000;본사이트는 상업적 목적이아닌
 73
     1
 44
1.0
  0
MTEXT
  5
83
330
79
100
AcDbEntity
  8
Layer 1
100
AcDbMText
 10
194.1762638092041
 20
498.1668834686279
 30
0.0
 40
0.2
 41
0.0
 46
0.0
 71
     7
 72
     1
  1
\C1;\c66047;\FHancom Gothic Regular|b0|i0|c129;\H7.788000;\W1.000000;개인 포트폴리오 용도\C7;\c16777215;로 제작되었습니다.
 73
     1
 44
1.0
  0
MTEXT
  5
84
330
79
100
AcDbEntity
  8
Layer 1
100
AcDbMText
 10
192.9057559967041
 20
484.1668834686279
 30
0.0
 40
0.2
 41
0.0
 46
0.0
 71
     7
 72
     1
  1
\C7;\c16777215;\FHancom Gothic Regular|b0|i0|c129;\H7.788000;\W1.000000;홈페이지의 일부 내용과 기타 이미지 등은
 73
     1
 44
1.0
  0
MTEXT
  5
85
330
79
100
AcDbEntity
  8
Layer 1
100
AcDbMText
 10
209.8593692779541
 20
470.1668834686279
 30
0.0
 40
0.2
 41
0.0
 46
0.0
 71
     7
 72
     1
  1
\C7;\c16777215;\FHancom Gothic Regular|b0|i0|c129;\H7.788000;\W1.000000;그 출처가 따로 있음을 밝힙니다. \FGulim|b0|i0|c129;\H8.149726; 
 73
     1
 44
1.0
  0
INSERT
  5
87
330
79
100
AcDbEntity
  8
Layer 1
100
AcDbBlockReference
  2
Block_1
 10
0.0
 20
0.0
 30
0.0
  0
IMAGE
  5
AD
330
79
100
AcDbEntity
  8
Layer 1
160
               140
310
8C000000010000008400000006000000050000008058777DDBD87040CA0A6CA3D276784000000000000000008058777DDBD87040D00A6CA3D2F67A4000000000000000008058777DDB587340D00A6CA3D2F67A4000000000000000008058777DDB587340CA0A6CA3D276784000000000000000008058777DDBD87040CA0A6C
310
A3D27678400000000000000000
100
AcDbRasterImage
 90
        0
 10
269.5535864507619
 20
391.4264253826519
 30
0.0
 11
0.03125
 21
0.0
 31
0.0
 12
0.0
 22
0.0312500000000003
 32
0.0
 13
1280.0
 23
1280.0
340
AC
 70
     3
280
     0
281
    50
282
    50
283
     0
290
     0
360
0
 71
     1
 91
        2
 14
-0.5
 24
-0.5
 14
1279.5
 24
1279.5
  0
ENDBLK
  5
7C
330
79
100
AcDbEntity
  8
0
100
AcDbBlockEnd
  0
BLOCK
  5
88
330
86
100
AcDbEntity
  8
0
100
AcDbBlockBegin
  2
Block_1
 70
     0
 10
0.0
 20
0.0
 30
0.0
  3
Block_1
  1

  0
LWPOLYLINE
  5
8A
330
86
100
AcDbEntity
  8
Layer 1
100
AcDbPolyline
 90
        4
 70
     1
 43
0.0
 10
269.5053633884372
 20
548.8783976845988
 10
272.0256479296304
 20
548.8783976845988
 10
269.2944508116389
 20
543.8923009343771
 10
266.7748371119733
 20
543.8923009343771
  0
LWPOLYLINE
  5
8B
330
86
100
AcDbEntity
  8
Layer 1
100
AcDbPolyline
 90
       12
 70
     1
 43
0.0
 10
273.1399827938512
 20
548.8783976845988
 10
275.6674453394107
 20
548.8783976845988
 10
275.9726782352154
 20
546.797782681665
 10
275.9871013280963
 20
546.797782681665
 10
277.1270623387309
 20
548.8783976845988
 10
279.4933216648124
 20
548.8783976845988
 10
276.7614537052941
 20
543.8923009343771
 10
274.5419074216524
 20
543.8923009343771
 10
274.0296528299259
 20
546.1551164966531
 10
274.0152297370496
 20
546.1551164966531
 10
272.7757158434733
 20
543.8923009343771
 10
270.4094565173909
 20
543.8923009343771
  0
SPLINE
  5
8C
330
86
100
AcDbEntity
  8
Layer 1
100
AcDbSpline
210
0.0
220
0.0
230
1.0
 70
     9
 71
     3
 72
    29
 73
    25
 74
     0
 42
0.0000000001
 43
0.0000000001
 40
0.0
 40
0.0
 40
0.0
 40
0.0
 40
1.0
 40
1.0
 40
1.0
 40
2.0
 40
2.0
 40
2.0
 40
3.0
 40
3.0
 40
3.0
 40
4.0
 40
4.0
 40
4.0
 40
5.0
 40
5.0
 40
5.0
 40
6.0
 40
6.0
 40
6.0
 40
7.0
 40
7.0
 40
7.0
 40
8.0
 40
8.0
 40
8.0
 40
8.0
 10
278.5643403151216
 20
545.6807644513283
 30
0.0
 10
278.7687457290849
 20
545.583157008823
 30
0.0
 10
279.024940109095
 20
545.5406256558689
 30
0.0
 10
279.3059556256976
 20
545.5406256558689
 30
0.0
 10
279.6963853957123
 20
545.5406256558689
 30
0.0
 10
280.175299163433
 20
545.6244808470246
 30
0.0
 10
280.4235776134083
 20
546.0784393098619
 30
0.0
 10
280.4235776134083
 20
546.0784393098619
 30
0.0
 10
281.956584676027
 20
548.8783976845988
 30
0.0
 10
281.956584676027
 20
548.8783976845988
 30
0.0
 10
281.956584676027
 20
548.8783976845988
 30
0.0
 10
284.4781438161253
 20
548.8783976845988
 30
0.0
 10
284.4781438161253
 20
548.8783976845988
 30
0.0
 10
284.4781438161253
 20
548.8783976845988
 30
0.0
 10
282.4924528895817
 20
545.2549813327213
 30
0.0
 10
282.4924528895817
 20
545.2549813327213
 30
0.0
 10
281.7462758566108
 20
543.8929717759065
 30
0.0
 10
280.236211574289
 20
543.74753333237
 30
0.0
 10
279.3767294070331
 20
543.74753333237
 30
0.0
 10
278.8598460087533
 20
543.74753333237
 30
0.0
 10
278.0166652906555
 20
543.788790086417
 30
0.0
 10
277.6170449916817
 20
543.9499933058923
 30
0.0
 10
277.6170449916817
 20
543.9499933058923
 30
0.0
 10
278.5643403151216
 20
545.6807644513283
 30
0.0
 10
278.5643403151216
 20
545.6807644513283
 30
0.0
  0
LWPOLYLINE
  5
8D
330
86
100
AcDbEntity
  8
Layer 1
100
AcDbPolyline
 90
       12
 70
     1
 43
0.0
 10
285.4902424312868
 20
548.8783976845988
 10
291.1177307676153
 20
548.8783976845988
 10
290.2516743533661
 20
547.3002429870639
 10
287.1457451571432
 20
547.3002429870639
 10
286.8849890547281
 20
546.8252871843624
 10
289.9922599340089
 20
546.8252871843624
 10
289.3581134364185
 20
545.6664084426029
 10
286.2502387997647
 20
545.6664084426029
 10
285.9947152612776
 20
545.1986306442659
 10
289.1013152990317
 20
545.1986306442659
 10
288.3859298922516
 20
543.8923009343771
 10
282.7591123974553
 20
543.8923009343771
  0
INSERT
  5
8F
330
86
100
AcDbEntity
  8
Layer 1
100
AcDbBlockReference
  2
Block_2
 10
0.0
 20
0.0
 30
0.0
  0
INSERT
  5
A3
330
86
100
AcDbEntity
  8
Layer 1
100
AcDbBlockReference
  2
Block_3
 10
0.0
 20
0.0
 30
0.0
  0
ENDBLK
  5
89
330
86
100
AcDbEntity
  8
0
100
AcDbBlockEnd
  0
BLOCK
  5
90
330
8E
100
AcDbEntity
  8
0
100
AcDbBlockBegin
  2
Block_2
 70
     0
 10
0.0
 20
0.0
 30
0.0
  3
Block_2
  1

  0
SPLINE
  5
92
330
8E
100
AcDbEntity
  8
Layer 1
100
AcDbSpline
210
0.0
220
0.0
230
1.0
 70
    11
 71
     3
 72
    20
 73
    16
 74
     0
 42
0.0000000001
 43
0.0000000001
 40
0.0
 40
0.0
 40
0.0
 40
0.0
 40
1.0
 40
1.0
 40
1.0
 40
2.0
 40
2.0
 40
2.0
 40
3.0
 40
3.0
 40
3.0
 40
4.0
 40
4.0
 40
4.0
 40
5.0
 40
5.0
 40
5.0
 40
5.0
 10
267.8073293096268
 20
538.1062927446937
 30
0.0
 10
267.8073293096268
 20
538.1062927446937
 30
0.0
 10
269.1581358129024
 20
538.1062927446937
 30
0.0
 10
269.1581358129024
 20
538.1062927446937
 30
0.0
 10
269.9501984064728
 20
538.1062927446937
 30
0.0
 10
270.436961020092
 20
538.4450006328088
 30
0.0
 10
270.71797653669
 20
538.9566514671578
 30
0.0
 10
271.0363579264649
 20
539.5390760828422
 30
0.0
 10
270.8496627288759
 20
539.7945325371774
 30
0.0
 10
270.0825554401945
 20
539.7945325371774
 30
0.0
 10
270.0825554401945
 20
539.7945325371774
 30
0.0
 10
268.7310110112385
 20
539.7945325371774
 30
0.0
 10
268.7310110112385
 20
539.7945325371774
 30
0.0
 10
268.7310110112385
 20
539.7945325371774
 30
0.0
 10
267.8073293096268
 20
538.1062927446937
 30
0.0
 10
267.8073293096268
 20
538.1062927446937
 30
0.0
  0
SPLINE
  5
93
330
8E
100
AcDbEntity
  8
Layer 1
100
AcDbSpline
210
0.0
220
0.0
230
1.0
 70
    11
 71
     3
 72
    26
 73
    22
 74
     0
 42
0.0000000001
 43
0.0000000001
 40
0.0
 40
0.0
 40
0.0
 40
0.0
 40
1.0
 40
1.0
 40
1.0
 40
2.0
 40
2.0
 40
2.0
 40
3.0
 40
3.0
 40
3.0
 40
4.0
 40
4.0
 40
4.0
 40
5.0
 40
5.0
 40
5.0
 40
6.0
 40
6.0
 40
6.0
 40
7.0
 40
7.0
 40
7.0
 40
7.0
 10
265.8596750977876
 20
542.2283456052546
 30
0.0
 10
265.8596750977876
 20
542.2283456052546
 30
0.0
 10
273.3103094581275
 20
542.2283456052546
 30
0.0
 10
273.3103094581275
 20
542.2283456052546
 30
0.0
 10
276.3264800577399
 20
542.2283456052546
 30
0.0
 10
275.698236965608
 20
540.3776279943904
 30
0.0
 10
275.0155886254506
 20
539.1309360964533
 30
0.0
 10
274.0741967074691
 20
537.4079467127558
 30
0.0
 10
271.9849949329573
 20
535.8245594512945
 30
0.0
 10
269.353417782062
 20
535.8245594512945
 30
0.0
 10
269.353417782062
 20
535.8245594512945
 30
0.0
 10
266.5599665701611
 20
535.8245594512945
 30
0.0
 10
266.5599665701611
 20
535.8245594512945
 30
0.0
 10
266.5599665701611
 20
535.8245594512945
 30
0.0
 10
265.5157346457481
 20
533.9155457115394
 30
0.0
 10
265.5157346457481
 20
533.9155457115394
 30
0.0
 10
265.5157346457481
 20
533.9155457115394
 30
0.0
 10
261.3124428759956
 20
533.9155457115394
 30
0.0
 10
261.3124428759956
 20
533.9155457115394
 30
0.0
 10
261.3124428759956
 20
533.9155457115394
 30
0.0
 10
265.8596750977876
 20
542.2283456052546
 30
0.0
 10
265.8596750977876
 20
542.2283456052546
 30
0.0
  0
HATCH
  5
94
330
8E
100
AcDbEntity
  8
Layer 1
 62
    12
420
 14030361
440
 33554687
100
AcDbHatch
 10
0.0
 20
0.0
 30
0.0
210
0.0
220
0.0
230
1.0
  2
SOLID
 70
     1
 71
     1
 91
        2
 92
        1
 93
        1
 72
     4
 94
        3
 73
     0
 74
     0
 95
       20
 96
       16
 40
0.0
 40
0.0
 40
0.0
 40
0.0
 40
1.0
 40
1.0
 40
1.0
 40
2.0
 40
2.0
 40
2.0
 40
3.0
 40
3.0
 40
3.0
 40
4.0
 40
4.0
 40
4.0
 40
5.0
 40
5.0
 40
5.0
 40
5.0
 10
267.8073293096268
 20
538.1062927446937
 10
267.8073293096268
 20
538.1062927446937
 10
269.1581358129024
 20
538.1062927446937
 10
269.1581358129024
 20
538.1062927446937
 10
269.9501984064728
 20
538.1062927446937
 10
270.436961020092
 20
538.4450006328088
 10
270.71797653669
 20
538.9566514671578
 10
271.0363579264649
 20
539.5390760828422
 10
270.8496627288759
 20
539.7945325371774
 10
270.0825554401945
 20
539.7945325371774
 10
270.0825554401945
 20
539.7945325371774
 10
268.7310110112385
 20
539.7945325371774
 10
268.7310110112385
 20
539.7945325371774
 10
268.7310110112385
 20
539.7945325371774
 10
267.8073293096268
 20
538.1062927446937
 10
267.8073293096268
 20
538.1062927446937
 97
        0
 97
        1
330
92
 92
        1
 93
        1
 72
     4
 94
        3
 73
     0
 74
     0
 95
       26
 96
       22
 40
0.0
 40
0.0
 40
0.0
 40
0.0
 40
1.0
 40
1.0
 40
1.0
 40
2.0
 40
2.0
 40
2.0
 40
3.0
 40
3.0
 40
3.0
 40
4.0
 40
4.0
 40
4.0
 40
5.0
 40
5.0
 40
5.0
 40
6.0
 40
6.0
 40
6.0
 40
7.0
 40
7.0
 40
7.0
 40
7.0
 10
265.8596750977876
 20
542.2283456052546
 10
265.8596750977876
 20
542.2283456052546
 10
273.3103094581275
 20
542.2283456052546
 10
273.3103094581275
 20
542.2283456052546
 10
276.3264800577399
 20
542.2283456052546
 10
275.698236965608
 20
540.3776279943904
 10
275.0155886254506
 20
539.1309360964533
 10
274.0741967074691
 20
537.4079467127558
 10
271.9849949329573
 20
535.8245594512945
 10
269.353417782062
 20
535.8245594512945
 10
269.353417782062
 20
535.8245594512945
 10
266.5599665701611
 20
535.8245594512945
 10
266.5599665701611
 20
535.8245594512945
 10
266.5599665701611
 20
535.8245594512945
 10
265.5157346457481
 20
533.9155457115394
 10
265.5157346457481
 20
533.9155457115394
 10
265.5157346457481
 20
533.9155457115394
 10
261.3124428759956
 20
533.9155457115394
 10
261.3124428759956
 20
533.9155457115394
 10
261.3124428759956
 20
533.9155457115394
 10
265.8596750977876
 20
542.2283456052546
 10
265.8596750977876
 20
542.2283456052546
 97
        0
 97
        1
330
93
 75
     2
 76
     1
 98
        1
 10
0.0
 20
0.0
450
        0
451
        0
460
0.0
461
0.0
452
        0
462
0.0
453
        0
470

  0
LWPOLYLINE
  5
95
330
8E
100
AcDbEntity
  8
Layer 1
100
AcDbPolyline
 90
       12
 70
     1
 43
0.0
 10
277.9223449716401
 20
542.2283456052546
 10
287.3075521339933
 20
542.2283456052546
 10
285.8682616330125
 20
539.5967013702047
 10
280.6876208393178
 20
539.5967013702047
 10
280.2545926321918
 20
538.8046387766308
 10
285.4352334258938
 20
538.8046387766308
 10
284.3791946905649
 20
536.8727493407286
 10
279.1972122138032
 20
536.8727493407286
 10
278.7713620110471
 20
536.0918227165439
 10
283.9520698888964
 20
536.0918227165439
 10
282.7617286794175
 20
533.9155457115394
 10
273.3777961159694
 20
533.9155457115394
  0
HATCH
  5
96
330
8E
100
AcDbEntity
  8
Layer 1
 62
    12
420
 14030361
440
 33554687
100
AcDbHatch
 10
0.0
 20
0.0
 30
0.0
210
0.0
220
0.0
230
1.0
  2
SOLID
 70
     1
 71
     1
 91
        1
 92
        1
 93
       12
 72
     1
 10
277.9223449716401
 20
542.2283456052546
 11
287.3075521339933
 21
542.2283456052546
 72
     1
 10
287.3075521339933
 20
542.2283456052546
 11
285.8682616330125
 21
539.5967013702047
 72
     1
 10
285.8682616330125
 20
539.5967013702047
 11
280.6876208393178
 21
539.5967013702047
 72
     1
 10
280.6876208393178
 20
539.5967013702047
 11
280.2545926321918
 21
538.8046387766308
 72
     1
 10
280.2545926321918
 20
538.8046387766308
 11
285.4352334258938
 21
538.8046387766308
 72
     1
 10
285.4352334258938
 20
538.8046387766308
 11
284.3791946905649
 21
536.8727493407286
 72
     1
 10
284.3791946905649
 20
536.8727493407286
 11
279.1972122138032
 21
536.8727493407286
 72
     1
 10
279.1972122138032
 20
536.8727493407286
 11
278.7713620110471
 21
536.0918227165439
 72
     1
 10
278.7713620110471
 20
536.0918227165439
 11
283.9520698888964
 21
536.0918227165439
 72
     1
 10
283.9520698888964
 20
536.0918227165439
 11
282.7617286794175
 21
533.9155457115394
 72
     1
 10
282.7617286794175
 20
533.9155457115394
 11
273.3777961159694
 21
533.9155457115394
 72
     1
 10
273.3777961159694
 20
533.9155457115394
 11
277.9223449716401
 21
542.2283456052546
 97
        1
330
95
 75
     2
 76
     1
 98
        1
 10
0.0
 20
0.0
450
        0
451
        0
460
0.0
461
0.0
452
        0
462
0.0
453
        0
470

  0
LWPOLYLINE
  5
97
330
8E
100
AcDbEntity
  8
Layer 1
100
AcDbPolyline
 90
       12
 70
     1
 43
0.0
 10
289.0469100510081
 20
542.2283456052546
 10
298.431513455982
 20
542.2283456052546
 10
296.9928267123787
 20
539.5967013702047
 10
291.8115150771537
 20
539.5967013702047
 10
291.3791577115626
 20
538.8046387766308
 10
296.5591276637251
 20
538.8046387766308
 10
295.5044306114596
 20
536.8727493407286
 10
290.3224481347006
 20
536.8727493407286
 10
289.8953233330367
 20
536.0918227165439
 10
295.0759641267305
 20
536.0918227165439
 10
293.8849520757258
 20
533.9155457115394
 10
284.5016903538035
 20
533.9155457115394
  0
HATCH
  5
98
330
8E
100
AcDbEntity
  8
Layer 1
 62
    12
420
 14030361
440
 33554687
100
AcDbHatch
 10
0.0
 20
0.0
 30
0.0
210
0.0
220
0.0
230
1.0
  2
SOLID
 70
     1
 71
     1
 91
        1
 92
        1
 93
       12
 72
     1
 10
289.0469100510081
 20
542.2283456052546
 11
298.431513455982
 21
542.2283456052546
 72
     1
 10
298.431513455982
 20
542.2283456052546
 11
296.9928267123787
 21
539.5967013702047
 72
     1
 10
296.9928267123787
 20
539.5967013702047
 11
291.8115150771537
 21
539.5967013702047
 72
     1
 10
291.8115150771537
 20
539.5967013702047
 11
291.3791577115626
 21
538.8046387766308
 72
     1
 10
291.3791577115626
 20
538.8046387766308
 11
296.5591276637251
 21
538.8046387766308
 72
     1
 10
296.5591276637251
 20
538.8046387766308
 11
295.5044306114596
 21
536.8727493407286
 72
     1
 10
295.5044306114596
 20
536.8727493407286
 11
290.3224481347006
 21
536.8727493407286
 72
     1
 10
290.3224481347006
 20
536.8727493407286
 11
289.8953233330367
 21
536.0918227165439
 72
     1
 10
289.8953233330367
 20
536.0918227165439
 11
295.0759641267305
 21
536.0918227165439
 72
     1
 10
295.0759641267305
 20
536.0918227165439
 11
293.8849520757258
 21
533.9155457115394
 72
     1
 10
293.8849520757258
 20
533.9155457115394
 11
284.5016903538035
 21
533.9155457115394
 72
     1
 10
284.5016903538035
 20
533.9155457115394
 11
289.0469100510081
 21
542.2283456052546
 97
        1
330
97
 75
     2
 76
     1
 98
        1
 10
0.0
 20
0.0
450
        0
451
        0
460
0.0
461
0.0
452
        0
462
0.0
453
        0
470

  0
SPLINE
  5
99
330
8E
100
AcDbEntity
  8
Layer 1
100
AcDbSpline
210
0.0
220
0.0
230
1.0
 70
    11
 71
     3
 72
    20
 73
    16
 74
     0
 42
0.0000000001
 43
0.0000000001
 40
0.0
 40
0.0
 40
0.0
 40
0.0
 40
1.0
 40
1.0
 40
1.0
 40
2.0
 40
2.0
 40
2.0
 40
3.0
 40
3.0
 40
3.0
 40
4.0
 40
4.0
 40
4.0
 40
5.0
 40
5.0
 40
5.0
 40
5.0
 10
301.1469457980402
 20
536.4528025434265
 30
0.0
 10
301.1469457980402
 20
536.4528025434265
 30
0.0
 10
302.1027608088953
 20
536.4528025434265
 30
0.0
 10
302.1027608088953
 20
536.4528025434265
 30
0.0
 10
303.1025159399251
 20
536.4528025434265
 30
0.0
 10
304.0471949813946
 20
536.9651242193058
 30
0.0
 10
304.6459210462417
 20
538.0591325851883
 30
0.0
 10
305.1163151265446
 20
538.921968960095
 30
0.0
 10
305.0154205605486
 20
539.375256581401
 30
0.0
 10
303.8859917619229
 20
539.375256581401
 30
0.0
 10
303.8859917619229
 20
539.375256581401
 30
0.0
 10
302.745426993908
 20
539.375256581401
 30
0.0
 10
302.745426993908
 20
539.375256581401
 30
0.0
 10
302.745426993908
 20
539.375256581401
 30
0.0
 10
301.1469457980402
 20
536.4528025434265
 30
0.0
 10
301.1469457980402
 20
536.4528025434265
 30
0.0
  0
SPLINE
  5
9A
330
8E
100
AcDbEntity
  8
Layer 1
100
AcDbSpline
210
0.0
220
0.0
230
1.0
 70
    11
 71
     3
 72
    20
 73
    16
 74
     0
 42
0.0000000001
 43
0.0000000001
 40
0.0
 40
0.0
 40
0.0
 40
0.0
 40
1.0
 40
1.0
 40
1.0
 40
2.0
 40
2.0
 40
2.0
 40
3.0
 40
3.0
 40
3.0
 40
4.0
 40
4.0
 40
4.0
 40
5.0
 40
5.0
 40
5.0
 40
5.0
 10
300.1020430320969
 20
542.2283456052546
 30
0.0
 10
300.1020430320969
 20
542.2283456052546
 30
0.0
 10
306.8786158238563
 20
542.2283456052546
 30
0.0
 10
306.8786158238563
 20
542.2283456052546
 30
0.0
 10
309.7768524826242
 20
542.2283456052546
 30
0.0
 10
310.7306549688928
 20
541.0989168066289
 30
0.0
 10
309.0758901687241
 20
538.0709393961015
 30
0.0
 10
308.2163409173081
 20
536.4999627029319
 30
0.0
 10
305.4753495129971
 20
533.9155457115394
 30
0.0
 10
302.1230873072345
 20
533.9155457115394
 30
0.0
 10
302.1230873072345
 20
533.9155457115394
 30
0.0
 10
295.556152493361
 20
533.9155457115394
 30
0.0
 10
295.556152493361
 20
533.9155457115394
 30
0.0
 10
295.556152493361
 20
533.9155457115394
 30
0.0
 10
300.1020430320969
 20
542.2283456052546
 30
0.0
 10
300.1020430320969
 20
542.2283456052546
 30
0.0
  0
HATCH
  5
9B
330
8E
100
AcDbEntity
  8
Layer 1
 62
    12
420
 14030361
440
 33554687
100
AcDbHatch
 10
0.0
 20
0.0
 30
0.0
210
0.0
220
0.0
230
1.0
  2
SOLID
 70
     1
 71
     1
 91
        2
 92
        1
 93
        1
 72
     4
 94
        3
 73
     0
 74
     0
 95
       20
 96
       16
 40
0.0
 40
0.0
 40
0.0
 40
0.0
 40
1.0
 40
1.0
 40
1.0
 40
2.0
 40
2.0
 40
2.0
 40
3.0
 40
3.0
 40
3.0
 40
4.0
 40
4.0
 40
4.0
 40
5.0
 40
5.0
 40
5.0
 40
5.0
 10
301.1469457980402
 20
536.4528025434265
 10
301.1469457980402
 20
536.4528025434265
 10
302.1027608088953
 20
536.4528025434265
 10
302.1027608088953
 20
536.4528025434265
 10
303.1025159399251
 20
536.4528025434265
 10
304.0471949813946
 20
536.9651242193058
 10
304.6459210462417
 20
538.0591325851883
 10
305.1163151265446
 20
538.921968960095
 10
305.0154205605486
 20
539.375256581401
 10
303.8859917619229
 20
539.375256581401
 10
303.8859917619229
 20
539.375256581401
 10
302.745426993908
 20
539.375256581401
 10
302.745426993908
 20
539.375256581401
 10
302.745426993908
 20
539.375256581401
 10
301.1469457980402
 20
536.4528025434265
 10
301.1469457980402
 20
536.4528025434265
 97
        0
 97
        1
330
99
 92
        1
 93
        1
 72
     4
 94
        3
 73
     0
 74
     0
 95
       20
 96
       16
 40
0.0
 40
0.0
 40
0.0
 40
0.0
 40
1.0
 40
1.0
 40
1.0
 40
2.0
 40
2.0
 40
2.0
 40
3.0
 40
3.0
 40
3.0
 40
4.0
 40
4.0
 40
4.0
 40
5.0
 40
5.0
 40
5.0
 40
5.0
 10
300.1020430320969
 20
542.2283456052546
 10
300.1020430320969
 20
542.2283456052546
 10
306.8786158238563
 20
542.2283456052546
 10
306.8786158238563
 20
542.2283456052546
 10
309.7768524826242
 20
542.2283456052546
 10
310.7306549688928
 20
541.0989168066289
 10
309.0758901687241
 20
538.0709393961015
 10
308.2163409173081
 20
536.4999627029319
 10
305.4753495129971
 20
533.9155457115394
 10
302.1230873072345
 20
533.9155457115394
 10
302.1230873072345
 20
533.9155457115394
 10
295.556152493361
 20
533.9155457115394
 10
295.556152493361
 20
533.9155457115394
 10
295.556152493361
 20
533.9155457115394
 10
300.1020430320969
 20
542.2283456052546
 10
300.1020430320969
 20
542.2283456052546
 97
        0
 97
        1
330
9A
 75
     2
 76
     1
 98
        1
 10
0.0
 20
0.0
450
        0
451
        0
460
0.0
461
0.0
452
        0
462
0.0
453
        0
470

  0
LWPOLYLINE
  5
9C
330
8E
100
AcDbEntity
  8
Layer 1
100
AcDbPolyline
 90
        4
 70
     1
 43
0.0
 10
312.6848834277171
 20
542.2283456052546
 10
316.8894497963774
 20
542.2283456052546
 10
312.34228465874
 20
533.9155457115394
 10
308.1390599731439
 20
533.9155457115394
  0
HATCH
  5
9D
330
8E
100
AcDbEntity
  8
Layer 1
 62
    12
420
 14030361
440
 33554687
100
AcDbHatch
 10
0.0
 20
0.0
 30
0.0
210
0.0
220
0.0
230
1.0
  2
SOLID
 70
     1
 71
     1
 91
        1
 92
        1
 93
        4
 72
     1
 10
312.6848834277171
 20
542.2283456052546
 11
316.8894497963774
 21
542.2283456052546
 72
     1
 10
316.8894497963774
 20
542.2283456052546
 11
312.34228465874
 21
533.9155457115394
 72
     1
 10
312.34228465874
 20
533.9155457115394
 11
308.1390599731439
 21
533.9155457115394
 72
     1
 10
308.1390599731439
 20
533.9155457115394
 11
312.6848834277171
 21
542.2283456052546
 97
        1
330
9C
 75
     2
 76
     1
 98
        1
 10
0.0
 20
0.0
450
        0
451
        0
460
0.0
461
0.0
452
        0
462
0.0
453
        0
470

  0
SPLINE
  5
9E
330
8E
100
AcDbEntity
  8
Layer 1
100
AcDbSpline
210
0.0
220
0.0
230
1.0
 70
     9
 71
     3
 72
    35
 73
    31
 74
     0
 42
0.0000000001
 43
0.0000000001
 40
0.0
 40
0.0
 40
0.0
 40
0.0
 40
1.0
 40
1.0
 40
1.0
 40
2.0
 40
2.0
 40
2.0
 40
3.0
 40
3.0
 40
3.0
 40
4.0
 40
4.0
 40
4.0
 40
5.0
 40
5.0
 40
5.0
 40
6.0
 40
6.0
 40
6.0
 40
7.0
 40
7.0
 40
7.0
 40
8.0
 40
8.0
 40
8.0
 40
9.0
 40
9.0
 40
9.0
 40
10.0
 40
10.0
 40
10.0
 40
10.0
 10
325.7106134009537
 20
536.8026464009244
 30
0.0
 10
324.2601869305854
 20
534.1480593855749
 30
0.0
 10
321.4844459350552
 20
533.6704873009084
 30
0.0
 10
318.9701318834723
 20
533.6704873009084
 30
0.0
 10
316.558590754159
 20
533.6704873009084
 30
0.0
 10
314.1766337362915
 20
534.1480593855749
 30
0.0
 10
315.6283348055658
 20
536.8026464009244
 30
0.0
 10
315.6283348055658
 20
536.8026464009244
 30
0.0
 10
318.5960706467613
 20
542.2283456052546
 30
0.0
 10
318.5960706467613
 20
542.2283456052546
 30
0.0
 10
318.5960706467613
 20
542.2283456052546
 30
0.0
 10
322.7992953323646
 20
542.2283456052546
 30
0.0
 10
322.7992953323646
 20
542.2283456052546
 30
0.0
 10
322.7992953323646
 20
542.2283456052546
 30
0.0
 10
319.9586839609492
 20
537.0352271591118
 30
0.0
 10
319.9586839609492
 20
537.0352271591118
 30
0.0
 10
319.5322300008138
 20
536.2555751338295
 30
0.0
 10
319.9154817664694
 20
536.1043003689874
 30
0.0
 10
320.3583042599185
 20
536.1043003689874
 30
0.0
 10
320.7880453435446
 20
536.1043003689874
 30
0.0
 10
321.3147901123066
 20
536.2555751338295
 30
0.0
 10
321.740640315069
 20
537.0352271591118
 30
0.0
 10
321.740640315069
 20
537.0352271591118
 30
0.0
 10
324.5805808449532
 20
542.2283456052546
 30
0.0
 10
324.5805808449532
 20
542.2283456052546
 30
0.0
 10
324.5805808449532
 20
542.2283456052546
 30
0.0
 10
328.6776784006197
 20
542.2283456052546
 30
0.0
 10
328.6776784006197
 20
542.2283456052546
 30
0.0
 10
328.6776784006197
 20
542.2283456052546
 30
0.0
 10
325.7106134009537
 20
536.8026464009244
 30
0.0
 10
325.7106134009537
 20
536.8026464009244
 30
0.0
  0
HATCH
  5
9F
330
8E
100
AcDbEntity
  8
Layer 1
 62
    12
420
 14030361
440
 33554687
100
AcDbHatch
 10
0.0
 20
0.0
 30
0.0
210
0.0
220
0.0
230
1.0
  2
SOLID
 70
     1
 71
     1
 91
        1
 92
        1
 93
        1
 72
     4
 94
        3
 73
     0
 74
     0
 95
       35
 96
       31
 40
0.0
 40
0.0
 40
0.0
 40
0.0
 40
1.0
 40
1.0
 40
1.0
 40
2.0
 40
2.0
 40
2.0
 40
3.0
 40
3.0
 40
3.0
 40
4.0
 40
4.0
 40
4.0
 40
5.0
 40
5.0
 40
5.0
 40
6.0
 40
6.0
 40
6.0
 40
7.0
 40
7.0
 40
7.0
 40
8.0
 40
8.0
 40
8.0
 40
9.0
 40
9.0
 40
9.0
 40
10.0
 40
10.0
 40
10.0
 40
10.0
 10
325.7106134009537
 20
536.8026464009244
 10
324.2601869305854
 20
534.1480593855749
 10
321.4844459350552
 20
533.6704873009084
 10
318.9701318834723
 20
533.6704873009084
 10
316.558590754159
 20
533.6704873009084
 10
314.1766337362915
 20
534.1480593855749
 10
315.6283348055658
 20
536.8026464009244
 10
315.6283348055658
 20
536.8026464009244
 10
318.5960706467613
 20
542.2283456052546
 10
318.5960706467613
 20
542.2283456052546
 10
318.5960706467613
 20
542.2283456052546
 10
322.7992953323646
 20
542.2283456052546
 10
322.7992953323646
 20
542.2283456052546
 10
322.7992953323646
 20
542.2283456052546
 10
319.9586839609492
 20
537.0352271591118
 10
319.9586839609492
 20
537.0352271591118
 10
319.5322300008138
 20
536.2555751338295
 10
319.9154817664694
 20
536.1043003689874
 10
320.3583042599185
 20
536.1043003689874
 10
320.7880453435446
 20
536.1043003689874
 10
321.3147901123066
 20
536.2555751338295
 10
321.740640315069
 20
537.0352271591118
 10
321.740640315069
 20
537.0352271591118
 10
324.5805808449532
 20
542.2283456052546
 10
324.5805808449532
 20
542.2283456052546
 10
324.5805808449532
 20
542.2283456052546
 10
328.6776784006197
 20
542.2283456052546
 10
328.6776784006197
 20
542.2283456052546
 10
328.6776784006197
 20
542.2283456052546
 10
325.7106134009537
 20
536.8026464009244
 10
325.7106134009537
 20
536.8026464009244
 97
        0
 97
        1
330
9E
 75
     2
 76
     1
 98
        1
 10
0.0
 20
0.0
450
        0
451
        0
460
0.0
461
0.0
452
        0
462
0.0
453
        0
470

  0
LWPOLYLINE
  5
A0
330
8E
100
AcDbEntity
  8
Layer 1
100
AcDbPolyline
 90
       16
 70
     1
 43
0.0
 10
330.4026132247545
 20
542.2283456052546
 10
335.7483481187974
 20
542.2283456052546
 10
334.6792279736455
 20
537.932075199551
 10
334.7027745113282
 20
537.932075199551
 10
338.2967409200737
 20
542.2283456052546
 10
343.6071895496807
 20
542.2283456052546
 10
339.0599573278832
 20
533.9155457115394
 10
335.1135307796813
 20
533.9155457115394
 10
337.540098759242
 20
538.3513511553246
 10
337.517155978936
 20
538.3513511553246
 10
333.6355998066083
 20
533.9155457115394
 10
331.30663926956
 20
533.9155457115394
 10
332.2539345929963
 20
538.3513511553246
 10
332.2310588968448
 20
538.3513511553246
 10
329.8050946746644
 20
533.9155457115394
 10
325.8586681264514
 20
533.9155457115394
  0
HATCH
  5
A1
330
8E
100
AcDbEntity
  8
Layer 1
 62
    12
420
 14030361
440
 33554687
100
AcDbHatch
 10
0.0
 20
0.0
 30
0.0
210
0.0
220
0.0
230
1.0
  2
SOLID
 70
     1
 71
     1
 91
        1
 92
        1
 93
       16
 72
     1
 10
330.4026132247545
 20
542.2283456052546
 11
335.7483481187974
 21
542.2283456052546
 72
     1
 10
335.7483481187974
 20
542.2283456052546
 11
334.6792279736455
 21
537.932075199551
 72
     1
 10
334.6792279736455
 20
537.932075199551
 11
334.7027745113282
 21
537.932075199551
 72
     1
 10
334.7027745113282
 20
537.932075199551
 11
338.2967409200737
 21
542.2283456052546
 72
     1
 10
338.2967409200737
 20
542.2283456052546
 11
343.6071895496807
 21
542.2283456052546
 72
     1
 10
343.6071895496807
 20
542.2283456052546
 11
339.0599573278832
 21
533.9155457115394
 72
     1
 10
339.0599573278832
 20
533.9155457115394
 11
335.1135307796813
 21
533.9155457115394
 72
     1
 10
335.1135307796813
 20
533.9155457115394
 11
337.540098759242
 21
538.3513511553246
 72
     1
 10
337.540098759242
 20
538.3513511553246
 11
337.517155978936
 21
538.3513511553246
 72
     1
 10
337.517155978936
 20
538.3513511553246
 11
333.6355998066083
 21
533.9155457115394
 72
     1
 10
333.6355998066083
 20
533.9155457115394
 11
331.30663926956
 21
533.9155457115394
 72
     1
 10
331.30663926956
 20
533.9155457115394
 11
332.2539345929963
 21
538.3513511553246
 72
     1
 10
332.2539345929963
 20
538.3513511553246
 11
332.2310588968448
 21
538.3513511553246
 72
     1
 10
332.2310588968448
 20
538.3513511553246
 11
329.8050946746644
 21
533.9155457115394
 72
     1
 10
329.8050946746644
 20
533.9155457115394
 11
325.8586681264514
 21
533.9155457115394
 72
     1
 10
325.8586681264514
 20
533.9155457115394
 11
330.4026132247545
 21
542.2283456052546
 97
        1
330
A0
 75
     2
 76
     1
 98
        1
 10
0.0
 20
0.0
450
        0
451
        0
460
0.0
461
0.0
452
        0
462
0.0
453
        0
470

  0
ENDBLK
  5
91
330
8E
100
AcDbEntity
  8
0
100
AcDbBlockEnd
  0
BLOCK
  5
A4
330
A2
100
AcDbEntity
  8
0
100
AcDbBlockBegin
  2
Block_3
 70
     0
 10
0.0
 20
0.0
 30
0.0
  3
Block_3
  1

  0
SPLINE
  5
A6
330
A2
100
AcDbEntity
  8
Layer 1
100
AcDbSpline
210
0.0
220
0.0
230
1.0
 70
     9
 71
     3
 72
    65
 73
    61
 74
     0
 42
0.0000000001
 43
0.0000000001
 40
0.0
 40
0.0
 40
0.0
 40
0.0
 40
1.0
 40
1.0
 40
1.0
 40
2.0
 40
2.0
 40
2.0
 40
3.0
 40
3.0
 40
3.0
 40
4.0
 40
4.0
 40
4.0
 40
5.0
 40
5.0
 40
5.0
 40
6.0
 40
6.0
 40
6.0
 40
7.0
 40
7.0
 40
7.0
 40
8.0
 40
8.0
 40
8.0
 40
9.0
 40
9.0
 40
9.0
 40
10.0
 40
10.0
 40
10.0
 40
11.0
 40
11.0
 40
11.0
 40
12.0
 40
12.0
 40
12.0
 40
13.0
 40
13.0
 40
13.0
 40
14.0
 40
14.0
 40
14.0
 40
15.0
 40
15.0
 40
15.0
 40
16.0
 40
16.0
 40
16.0
 40
17.0
 40
17.0
 40
17.0
 40
18.0
 40
18.0
 40
18.0
 40
19.0
 40
19.0
 40
19.0
 40
20.0
 40
20.0
 40
20.0
 40
20.0
 10
251.2708172772809
 20
533.763533021015
 30
0.0
 10
255.377105361903
 20
533.763533021015
 30
0.0
 10
260.0900354414198
 20
534.223394889309
 30
0.0
 10
260.0900354414198
 20
537.8095124521596
 30
0.0
 10
260.0900354414198
 20
538.7195089865726
 30
0.0
 10
259.7939259904106
 20
539.4683023015077
 30
0.0
 10
259.2108305331976
 20
540.0356329827855
 30
0.0
 10
258.3198858982159
 20
540.903031080089
 30
0.0
 10
256.7678940203223
 20
541.3026513790591
 30
0.0
 10
254.6066438655753
 20
541.247575289507
 30
0.0
 10
254.6066438655753
 20
541.247575289507
 30
0.0
 10
254.5077618241621
 20
541.2443552501681
 30
0.0
 10
254.5077618241621
 20
541.2443552501681
 30
0.0
 10
253.1667496072132
 20
541.201085971531
 30
0.0
 10
251.3330713711948
 20
541.1499678470045
 30
0.0
 10
250.6137279993882
 20
541.9171422198415
 30
0.0
 10
250.3392196456252
 20
542.210635388882
 30
0.0
 10
250.2318179167951
 20
542.6259533796337
 30
0.0
 10
250.2842106402286
 20
543.1867768980773
 30
0.0
 10
250.3372742051933
 20
543.7527658962962
 30
0.0
 10
250.7218005697505
 20
544.3082897666581
 30
0.0
 10
251.3978746629182
 20
544.7924360983097
 30
0.0
 10
253.4077829686712
 20
546.2350137227859
 30
0.0
 10
258.2412632709857
 20
547.124012917332
 30
0.0
 10
265.8583334147343
 20
545.4685101914774
 30
0.0
 10
265.8583334147343
 20
545.4685101914774
 30
0.0
 10
266.3654225266837
 20
546.3903135368036
 30
0.0
 10
266.3654225266837
 20
546.3903135368036
 30
0.0
 10
259.4466984148794
 20
547.9364020092407
 30
0.0
 10
253.6645811060635
 20
547.6579356904539
 30
0.0
 10
250.8108883248342
 20
545.6133448776399
 30
0.0
 10
249.8917683456275
 20
544.9536393177868
 30
0.0
 10
249.3630781364309
 20
544.1464827898061
 30
0.0
 10
249.2818392272384
 20
543.2817680586185
 30
0.0
 10
249.2012711595807
 20
542.4268476137577
 30
0.0
 10
249.4030602915773
 20
541.7369541850858
 30
0.0
 10
249.8806323762374
 20
541.2266450337956
 30
0.0
 10
250.9091666088652
 20
540.1266661783038
 30
0.0
 10
252.9223620381145
 20
540.1895911137444
 30
0.0
 10
254.5372117672996
 20
540.2354766743456
 30
0.0
 10
254.5372117672996
 20
540.2354766743456
 30
0.0
 10
254.6368317343904
 20
540.2374221147802
 30
0.0
 10
254.6368317343904
 20
540.2374221147802
 30
0.0
 10
256.4921110676514
 20
540.2983345256352
 30
0.0
 10
257.8311778441648
 20
539.9721042899646
 30
0.0
 10
258.509197377768
 20
539.3117278885829
 30
0.0
 10
258.8950654253822
 20
538.9357212114455
 30
0.0
 10
259.0837731475613
 20
538.4450006328088
 30
0.0
 10
259.0837731475613
 20
537.8095124521596
 30
0.0
 10
259.0837731475613
 20
535.7085709508892
 30
0.0
 10
256.6742445428354
 20
534.7724115968349
 30
0.0
 10
251.2708172772809
 20
534.7724115968349
 30
0.0
 10
242.1954718172801
 20
534.7724115968349
 30
0.0
 10
234.5102441741683
 20
541.959069815417
 30
0.0
 10
234.318316412654
 20
550.5404746574404
 30
0.0
 10
234.318316412654
 20
550.5404746574404
 30
0.0
 10
233.3120541187954
 20
550.5404746574404
 30
0.0
 10
233.3120541187954
 20
550.5404746574404
 30
0.0
 10
233.5039818803098
 20
541.4126693898542
 30
0.0
 10
241.6490713917183
 20
533.763533021015
 30
0.0
 10
251.2708172772809
 20
533.763533021015
 30
0.0
  0
HATCH
  5
A7
330
A2
100
AcDbEntity
  8
Layer 1
 62
    12
420
 14030361
440
 33554687
100
AcDbHatch
 10
0.0
 20
0.0
 30
0.0
210
0.0
220
0.0
230
1.0
  2
SOLID
 70
     1
 71
     1
 91
        1
 92
        1
 93
        1
 72
     4
 94
        3
 73
     0
 74
     0
 95
       65
 96
       61
 40
0.0
 40
0.0
 40
0.0
 40
0.0
 40
1.0
 40
1.0
 40
1.0
 40
2.0
 40
2.0
 40
2.0
 40
3.0
 40
3.0
 40
3.0
 40
4.0
 40
4.0
 40
4.0
 40
5.0
 40
5.0
 40
5.0
 40
6.0
 40
6.0
 40
6.0
 40
7.0
 40
7.0
 40
7.0
 40
8.0
 40
8.0
 40
8.0
 40
9.0
 40
9.0
 40
9.0
 40
10.0
 40
10.0
 40
10.0
 40
11.0
 40
11.0
 40
11.0
 40
12.0
 40
12.0
 40
12.0
 40
13.0
 40
13.0
 40
13.0
 40
14.0
 40
14.0
 40
14.0
 40
15.0
 40
15.0
 40
15.0
 40
16.0
 40
16.0
 40
16.0
 40
17.0
 40
17.0
 40
17.0
 40
18.0
 40
18.0
 40
18.0
 40
19.0
 40
19.0
 40
19.0
 40
20.0
 40
20.0
 40
20.0
 40
20.0
 10
251.2708172772809
 20
533.763533021015
 10
255.377105361903
 20
533.763533021015
 10
260.0900354414198
 20
534.223394889309
 10
260.0900354414198
 20
537.8095124521596
 10
260.0900354414198
 20
538.7195089865726
 10
259.7939259904106
 20
539.4683023015077
 10
259.2108305331976
 20
540.0356329827855
 10
258.3198858982159
 20
540.903031080089
 10
256.7678940203223
 20
541.3026513790591
 10
254.6066438655753
 20
541.247575289507
 10
254.6066438655753
 20
541.247575289507
 10
254.5077618241621
 20
541.2443552501681
 10
254.5077618241621
 20
541.2443552501681
 10
253.1667496072132
 20
541.201085971531
 10
251.3330713711948
 20
541.1499678470045
 10
250.6137279993882
 20
541.9171422198415
 10
250.3392196456252
 20
542.210635388882
 10
250.2318179167951
 20
542.6259533796337
 10
250.2842106402286
 20
543.1867768980773
 10
250.3372742051933
 20
543.7527658962962
 10
250.7218005697505
 20
544.3082897666581
 10
251.3978746629182
 20
544.7924360983097
 10
253.4077829686712
 20
546.2350137227859
 10
258.2412632709857
 20
547.124012917332
 10
265.8583334147343
 20
545.4685101914774
 10
265.8583334147343
 20
545.4685101914774
 10
266.3654225266837
 20
546.3903135368036
 10
266.3654225266837
 20
546.3903135368036
 10
259.4466984148794
 20
547.9364020092407
 10
253.6645811060635
 20
547.6579356904539
 10
250.8108883248342
 20
545.6133448776399
 10
249.8917683456275
 20
544.9536393177868
 10
249.3630781364309
 20
544.1464827898061
 10
249.2818392272384
 20
543.2817680586185
 10
249.2012711595807
 20
542.4268476137577
 10
249.4030602915773
 20
541.7369541850858
 10
249.8806323762374
 20
541.2266450337956
 10
250.9091666088652
 20
540.1266661783038
 10
252.9223620381145
 20
540.1895911137444
 10
254.5372117672996
 20
540.2354766743456
 10
254.5372117672996
 20
540.2354766743456
 10
254.6368317343904
 20
540.2374221147802
 10
254.6368317343904
 20
540.2374221147802
 10
256.4921110676514
 20
540.2983345256352
 10
257.8311778441648
 20
539.9721042899646
 10
258.509197377768
 20
539.3117278885829
 10
258.8950654253822
 20
538.9357212114455
 10
259.0837731475613
 20
538.4450006328088
 10
259.0837731475613
 20
537.8095124521596
 10
259.0837731475613
 20
535.7085709508892
 10
256.6742445428354
 20
534.7724115968349
 10
251.2708172772809
 20
534.7724115968349
 10
242.1954718172801
 20
534.7724115968349
 10
234.5102441741683
 20
541.959069815417
 10
234.318316412654
 20
550.5404746574404
 10
234.318316412654
 20
550.5404746574404
 10
233.3120541187954
 20
550.5404746574404
 10
233.3120541187954
 20
550.5404746574404
 10
233.5039818803098
 20
541.4126693898542
 10
241.6490713917183
 20
533.763533021015
 10
251.2708172772809
 20
533.763533021015
 97
        0
 97
        1
330
A6
 75
     2
 76
     1
 98
        1
 10
0.0
 20
0.0
450
        0
451
        0
460
0.0
461
0.0
452
        0
462
0.0
453
        0
470

  0
SPLINE
  5
A8
330
A2
100
AcDbEntity
  8
Layer 1
100
AcDbSpline
210
0.0
220
0.0
230
1.0
 70
     9
 71
     3
 72
    50
 73
    46
 74
     0
 42
0.0000000001
 43
0.0000000001
 40
0.0
 40
0.0
 40
0.0
 40
0.0
 40
1.0
 40
1.0
 40
1.0
 40
2.0
 40
2.0
 40
2.0
 40
3.0
 40
3.0
 40
3.0
 40
4.0
 40
4.0
 40
4.0
 40
5.0
 40
5.0
 40
5.0
 40
6.0
 40
6.0
 40
6.0
 40
7.0
 40
7.0
 40
7.0
 40
8.0
 40
8.0
 40
8.0
 40
9.0
 40
9.0
 40
9.0
 40
10.0
 40
10.0
 40
10.0
 40
11.0
 40
11.0
 40
11.0
 40
12.0
 40
12.0
 40
12.0
 40
13.0
 40
13.0
 40
13.0
 40
14.0
 40
14.0
 40
14.0
 40
15.0
 40
15.0
 40
15.0
 40
15.0
 10
251.2708172772809
 20
532.2501816152034
 30
0.0
 10
254.0956638727503
 20
532.2501816152034
 30
0.0
 10
261.6007034811109
 20
532.2501816152034
 30
0.0
 10
261.6007034811109
 20
537.8095124521596
 30
0.0
 10
261.6007034811109
 20
539.1257035325252
 30
0.0
 10
261.1375544893226
 20
540.2701591814065
 30
0.0
 10
260.2629783876555
 20
541.1211887453991
 30
0.0
 10
258.9684554886862
 20
542.3809620531537
 30
0.0
 10
256.4056395945363
 20
542.9227336721696
 30
0.0
 10
254.5392242918842
 20
542.7576395718252
 30
0.0
 10
251.7974949618856
 20
542.5165391262153
 30
0.0
 10
251.5066180748072
 20
543.2254173701621
 30
0.0
 10
252.7900050043927
 20
543.8759324010661
 30
0.0
 10
253.7445454163489
 20
544.358737049658
 30
0.0
 10
257.3634000458278
 20
545.6951875442073
 30
0.0
 10
265.0984041304046
 20
544.0862412204806
 30
0.0
 10
265.0984041304046
 20
544.0862412204806
 30
0.0
 10
265.603480717773
 20
545.007977481654
 30
0.0
 10
265.603480717773
 20
545.007977481654
 30
0.0
 10
257.5900773985559
 20
546.7309668653524
 30
0.0
 10
253.679675040471
 20
545.4423473718361
 30
0.0
 10
252.3438953874529
 20
544.7800255300198
 30
0.0
 10
251.1791132402286
 20
544.2028334782626
 30
0.0
 10
250.7113354418925
 20
543.5378953544823
 30
0.0
 10
250.8705261367859
 20
542.6901529139832
 30
0.0
 10
251.0218679857771
 20
541.8811180297198
 30
0.0
 10
252.249575068442
 20
541.5732017678001
 30
0.0
 10
254.6145597956201
 20
541.7520481194951
 30
0.0
 10
256.5013015966042
 20
541.8935285980114
 30
0.0
 10
258.6231733535878
 20
541.3105002249522
 30
0.0
 10
259.5620160737553
 20
540.3972836511966
 30
0.0
 10
260.236077642332
 20
539.7414689722126
 30
0.0
 10
260.5931665883463
 20
538.8459626148324
 30
0.0
 10
260.5931665883463
 20
537.8095124521596
 30
0.0
 10
260.5931665883463
 20
533.259060191026
 30
0.0
 10
253.8205517616106
 20
533.259060191026
 30
0.0
 10
251.2708172772809
 20
533.259060191026
 30
0.0
 10
241.3759047210096
 20
533.259060191026
 30
0.0
 10
233.0008507333778
 20
541.138831877618
 30
0.0
 10
232.8089229718644
 20
550.5404746574404
 30
0.0
 10
232.8089229718644
 20
550.5404746574404
 30
0.0
 10
231.8019898364783
 20
550.5404746574404
 30
0.0
 10
231.8019898364783
 20
550.5404746574404
 30
0.0
 10
231.993313840615
 20
540.5924985362044
 30
0.0
 10
240.8301751369754
 20
532.2501816152034
 30
0.0
 10
251.2708172772809
 20
532.2501816152034
 30
0.0
  0
HATCH
  5
A9
330
A2
100
AcDbEntity
  8
Layer 1
 62
    12
420
 14030361
440
 33554687
100
AcDbHatch
 10
0.0
 20
0.0
 30
0.0
210
0.0
220
0.0
230
1.0
  2
SOLID
 70
     1
 71
     1
 91
        1
 92
        1
 93
        1
 72
     4
 94
        3
 73
     0
 74
     0
 95
       50
 96
       46
 40
0.0
 40
0.0
 40
0.0
 40
0.0
 40
1.0
 40
1.0
 40
1.0
 40
2.0
 40
2.0
 40
2.0
 40
3.0
 40
3.0
 40
3.0
 40
4.0
 40
4.0
 40
4.0
 40
5.0
 40
5.0
 40
5.0
 40
6.0
 40
6.0
 40
6.0
 40
7.0
 40
7.0
 40
7.0
 40
8.0
 40
8.0
 40
8.0
 40
9.0
 40
9.0
 40
9.0
 40
10.0
 40
10.0
 40
10.0
 40
11.0
 40
11.0
 40
11.0
 40
12.0
 40
12.0
 40
12.0
 40
13.0
 40
13.0
 40
13.0
 40
14.0
 40
14.0
 40
14.0
 40
15.0
 40
15.0
 40
15.0
 40
15.0
 10
251.2708172772809
 20
532.2501816152034
 10
254.0956638727503
 20
532.2501816152034
 10
261.6007034811109
 20
532.2501816152034
 10
261.6007034811109
 20
537.8095124521596
 10
261.6007034811109
 20
539.1257035325252
 10
261.1375544893226
 20
540.2701591814065
 10
260.2629783876555
 20
541.1211887453991
 10
258.9684554886862
 20
542.3809620531537
 10
256.4056395945363
 20
542.9227336721696
 10
254.5392242918842
 20
542.7576395718252
 10
251.7974949618856
 20
542.5165391262153
 10
251.5066180748072
 20
543.2254173701621
 10
252.7900050043927
 20
543.8759324010661
 10
253.7445454163489
 20
544.358737049658
 10
257.3634000458278
 20
545.6951875442073
 10
265.0984041304046
 20
544.0862412204806
 10
265.0984041304046
 20
544.0862412204806
 10
265.603480717773
 20
545.007977481654
 10
265.603480717773
 20
545.007977481654
 10
257.5900773985559
 20
546.7309668653524
 10
253.679675040471
 20
545.4423473718361
 10
252.3438953874529
 20
544.7800255300198
 10
251.1791132402286
 20
544.2028334782626
 10
250.7113354418925
 20
543.5378953544823
 10
250.8705261367859
 20
542.6901529139832
 10
251.0218679857771
 20
541.8811180297198
 10
252.249575068442
 20
541.5732017678001
 10
254.6145597956201
 20
541.7520481194951
 10
256.5013015966042
 20
541.8935285980114
 10
258.6231733535878
 20
541.3105002249522
 10
259.5620160737553
 20
540.3972836511966
 10
260.236077642332
 20
539.7414689722126
 10
260.5931665883463
 20
538.8459626148324
 10
260.5931665883463
 20
537.8095124521596
 10
260.5931665883463
 20
533.259060191026
 10
253.8205517616106
 20
533.259060191026
 10
251.2708172772809
 20
533.259060191026
 10
241.3759047210096
 20
533.259060191026
 10
233.0008507333778
 20
541.138831877618
 10
232.8089229718644
 20
550.5404746574404
 10
232.8089229718644
 20
550.5404746574404
 10
231.8019898364783
 20
550.5404746574404
 10
231.8019898364783
 20
550.5404746574404
 10
231.993313840615
 20
540.5924985362044
 10
240.8301751369754
 20
532.2501816152034
 10
251.2708172772809
 20
532.2501816152034
 97
        0
 97
        1
330
A8
 75
     2
 76
     1
 98
        1
 10
0.0
 20
0.0
450
        0
451
        0
460
0.0
461
0.0
452
        0
462
0.0
453
        0
470

  0
SPLINE
  5
AA
330
A2
100
AcDbEntity
  8
Layer 1
100
AcDbSpline
210
0.0
220
0.0
230
1.0
 70
     9
 71
     3
 72
    59
 73
    55
 74
     0
 42
0.0000000001
 43
0.0000000001
 40
0.0
 40
0.0
 40
0.0
 40
0.0
 40
1.0
 40
1.0
 40
1.0
 40
2.0
 40
2.0
 40
2.0
 40
3.0
 40
3.0
 40
3.0
 40
4.0
 40
4.0
 40
4.0
 40
5.0
 40
5.0
 40
5.0
 40
6.0
 40
6.0
 40
6.0
 40
7.0
 40
7.0
 40
7.0
 40
8.0
 40
8.0
 40
8.0
 40
9.0
 40
9.0
 40
9.0
 40
10.0
 40
10.0
 40
10.0
 40
11.0
 40
11.0
 40
11.0
 40
12.0
 40
12.0
 40
12.0
 40
13.0
 40
13.0
 40
13.0
 40
14.0
 40
14.0
 40
14.0
 40
15.0
 40
15.0
 40
15.0
 40
16.0
 40
16.0
 40
16.0
 40
17.0
 40
17.0
 40
17.0
 40
18.0
 40
18.0
 40
18.0
 40
18.0
 10
250.5187368388506
 20
546.0220886214046
 30
0.0
 10
253.5060612527022
 20
548.1662994013113
 30
0.0
 10
259.4990911383138
 20
548.4630796938472
 30
0.0
 10
266.6175918575218
 20
546.8501754050985
 30
0.0
 10
266.6175918575218
 20
546.8501754050985
 30
0.0
 10
267.1246809694703
 20
547.7699662258373
 30
0.0
 10
267.1246809694703
 20
547.7699662258373
 30
0.0
 10
259.6006565458365
 20
549.5204601122322
 30
0.0
 10
253.1883507044595
 20
549.1798067836843
 30
0.0
 10
249.9330250996727
 20
546.8436011581133
 30
0.0
 10
248.3083810841663
 20
545.6775444119866
 30
0.0
 10
247.8642169076538
 20
544.3404230759097
 30
0.0
 10
247.7790200334375
 20
543.4232485371349
 30
0.0
 10
247.625732744008
 20
541.7985374374711
 30
0.0
 10
248.2376073028299
 20
540.7693994474657
 30
0.0
 10
248.7787080803155
 20
540.1915365541799
 30
0.0
 10
250.2318179167951
 20
538.6402155178156
 30
0.0
 10
252.6544279313384
 20
538.5917807594023
 30
0.0
 10
254.6007404601187
 20
538.7234669515928
 30
0.0
 10
256.5733499768439
 20
538.8564277426894
 30
0.0
 10
257.2186324438153
 20
538.4502331967333
 30
0.0
 10
257.4040530424991
 20
538.2694414046055
 30
0.0
 10
257.5284941461732
 20
538.148220340272
 30
0.0
 10
257.5808868696031
 20
538.0133141087408
 30
0.0
 10
257.5743797067716
 20
537.8298389504943
 30
0.0
 10
257.5559986488706
 20
537.3653482756499
 30
0.0
 10
256.9041419349133
 20
536.285092161117
 30
0.0
 10
251.2708172772809
 20
536.285092161117
 30
0.0
 10
243.1591356740309
 20
536.285092161117
 30
0.0
 10
236.0347315493655
 20
542.90898142082
 30
0.0
 10
235.8336132588974
 20
550.5404746574404
 30
0.0
 10
235.8336132588974
 20
550.5404746574404
 30
0.0
 10
234.8221184011127
 20
550.5404746574404
 30
0.0
 10
234.8221184011127
 20
550.5404746574404
 30
0.0
 10
235.0218950085218
 20
542.3717715242055
 30
0.0
 10
242.6219257774174
 20
535.2762135852945
 30
0.0
 10
251.2708172772809
 20
535.2762135852945
 30
0.0
 10
256.1894273696607
 20
535.2762135852945
 30
0.0
 10
258.5118136597302
 20
536.0754541832293
 30
0.0
 10
258.5799711591026
 20
537.7911984784105
 30
0.0
 10
258.5976813754724
 20
538.256963752161
 30
0.0
 10
258.435203557091
 20
538.6730196685948
 30
0.0
 10
258.1062899553044
 20
538.9926756572767
 30
0.0
 10
257.4826085855702
 20
539.5999884936973
 30
0.0
 10
256.2824730897664
 20
539.8463215032343
 30
0.0
 10
254.5333208864267
 20
539.730333002828
 30
0.0
 10
252.809056903825
 20
539.612399061988
 30
0.0
 10
250.6759820933021
 20
539.6392998073097
 30
0.0
 10
249.5124745449921
 20
540.8813628986963
 30
0.0
 10
249.1141288449289
 20
541.3078839429881
 30
0.0
 10
248.6634575055905
 20
542.0789491966934
 30
0.0
 10
248.7813243622741
 20
543.3282573765937
 30
0.0
 10
248.8482072627421
 20
544.0371356205414
 30
0.0
 10
249.202612842635
 20
545.0794221045198
 30
0.0
 10
250.5187368388506
 20
546.0220886214046
 30
0.0
  0
HATCH
  5
AB
330
A2
100
AcDbEntity
  8
Layer 1
 62
    12
420
 14030361
440
 33554687
100
AcDbHatch
 10
0.0
 20
0.0
 30
0.0
210
0.0
220
0.0
230
1.0
  2
SOLID
 70
     1
 71
     1
 91
        1
 92
        1
 93
        1
 72
     4
 94
        3
 73
     0
 74
     0
 95
       59
 96
       55
 40
0.0
 40
0.0
 40
0.0
 40
0.0
 40
1.0
 40
1.0
 40
1.0
 40
2.0
 40
2.0
 40
2.0
 40
3.0
 40
3.0
 40
3.0
 40
4.0
 40
4.0
 40
4.0
 40
5.0
 40
5.0
 40
5.0
 40
6.0
 40
6.0
 40
6.0
 40
7.0
 40
7.0
 40
7.0
 40
8.0
 40
8.0
 40
8.0
 40
9.0
 40
9.0
 40
9.0
 40
10.0
 40
10.0
 40
10.0
 40
11.0
 40
11.0
 40
11.0
 40
12.0
 40
12.0
 40
12.0
 40
13.0
 40
13.0
 40
13.0
 40
14.0
 40
14.0
 40
14.0
 40
15.0
 40
15.0
 40
15.0
 40
16.0
 40
16.0
 40
16.0
 40
17.0
 40
17.0
 40
17.0
 40
18.0
 40
18.0
 40
18.0
 40
18.0
 10
250.5187368388506
 20
546.0220886214046
 10
253.5060612527022
 20
548.1662994013113
 10
259.4990911383138
 20
548.4630796938472
 10
266.6175918575218
 20
546.8501754050985
 10
266.6175918575218
 20
546.8501754050985
 10
267.1246809694703
 20
547.7699662258373
 10
267.1246809694703
 20
547.7699662258373
 10
259.6006565458365
 20
549.5204601122322
 10
253.1883507044595
 20
549.1798067836843
 10
249.9330250996727
 20
546.8436011581133
 10
248.3083810841663
 20
545.6775444119866
 10
247.8642169076538
 20
544.3404230759097
 10
247.7790200334375
 20
543.4232485371349
 10
247.625732744008
 20
541.7985374374711
 10
248.2376073028299
 20
540.7693994474657
 10
248.7787080803155
 20
540.1915365541799
 10
250.2318179167951
 20
538.6402155178156
 10
252.6544279313384
 20
538.5917807594023
 10
254.6007404601187
 20
538.7234669515928
 10
256.5733499768439
 20
538.8564277426894
 10
257.2186324438153
 20
538.4502331967333
 10
257.4040530424991
 20
538.2694414046055
 10
257.5284941461732
 20
538.148220340272
 10
257.5808868696031
 20
538.0133141087408
 10
257.5743797067716
 20
537.8298389504943
 10
257.5559986488706
 20
537.3653482756499
 10
256.9041419349133
 20
536.285092161117
 10
251.2708172772809
 20
536.285092161117
 10
243.1591356740309
 20
536.285092161117
 10
236.0347315493655
 20
542.90898142082
 10
235.8336132588974
 20
550.5404746574404
 10
235.8336132588974
 20
550.5404746574404
 10
234.8221184011127
 20
550.5404746574404
 10
234.8221184011127
 20
550.5404746574404
 10
235.0218950085218
 20
542.3717715242055
 10
242.6219257774174
 20
535.2762135852945
 10
251.2708172772809
 20
535.2762135852945
 10
256.1894273696607
 20
535.2762135852945
 10
258.5118136597302
 20
536.0754541832293
 10
258.5799711591026
 20
537.7911984784105
 10
258.5976813754724
 20
538.256963752161
 10
258.435203557091
 20
538.6730196685948
 10
258.1062899553044
 20
538.9926756572767
 10
257.4826085855702
 20
539.5999884936973
 10
256.2824730897664
 20
539.8463215032343
 10
254.5333208864267
 20
539.730333002828
 10
252.809056903825
 20
539.612399061988
 10
250.6759820933021
 20
539.6392998073097
 10
249.5124745449921
 20
540.8813628986963
 10
249.1141288449289
 20
541.3078839429881
 10
248.6634575055905
 20
542.0789491966934
 10
248.7813243622741
 20
543.3282573765937
 10
248.8482072627421
 20
544.0371356205414
 10
249.202612842635
 20
545.0794221045198
 10
250.5187368388506
 20
546.0220886214046
 97
        0
 97
        1
330
AA
 75
     2
 76
     1
 98
        1
 10
0.0
 20
0.0
450
        0
451
        0
460
0.0
461
0.0
452
        0
462
0.0
453
        0
470

  0
ENDBLK
  5
A5
330
A2
100
AcDbEntity
  8
0
100
AcDbBlockEnd
  0
ENDSEC
  0
SECTION
  2
ENTITIES
  0
INSERT
  5
7A
330
70
100
AcDbEntity
  8
Layer 1
100
AcDbBlockReference
  2
Block_0
 10
0.0
 20
0.0
 30
0.0
  0
ENDSEC
  0
SECTION
  2
OBJECTS
  0
DICTIONARY
  5
C
330
0
100
AcDbDictionary
281
     1
  3
ACAD_COLOR
350
63
  3
ACAD_DETAILVIEWSTYLE
350
6A
  3
ACAD_GROUP
350
D
  3
ACAD_IMAGE_DICT
350
7D
  3
ACAD_LAYOUT
350
62
  3
ACAD_MATERIAL
350
10
  3
ACAD_MLEADERSTYLE
350
66
  3
ACAD_MLINESTYLE
350
5F
  3
ACAD_PLOTSETTINGS
350
61
  3
ACAD_PLOTSTYLENAME
350
E
  3
ACAD_SCALELIST
350
42
  3
ACAD_SECTIONVIEWSTYLE
350
68
  3
ACAD_TABLESTYLE
350
64
  3
ACAD_VISUALSTYLE
350
29
  3
ACDB_RECOMPOSE_DATA
350
B6
  3
AcDbVariableDictionary
350
AE
  0
DICTIONARY
  5
63
102
{ACAD_REACTORS
330
C
102
}
330
C
100
AcDbDictionary
281
     1
  0
DICTIONARY
  5
6A
102
{ACAD_REACTORS
330
C
102
}
330
C
100
AcDbDictionary
281
     1
  3
Imperial24
350
6B
  0
DICTIONARY
  5
D
102
{ACAD_REACTORS
330
C
102
}
330
C
100
AcDbDictionary
281
     1
  0
DICTIONARY
  5
7D
102
{ACAD_REACTORS
330
C
102
}
330
C
100
AcDbDictionary
281
     1
  3
pop_1.png
350
7E
  3
pop_2.png
350
AC
  0
DICTIONARY
  5
62
102
{ACAD_REACTORS
330
C
102
}
330
C
100
AcDbDictionary
281
     1
  3
Layout1
350
6F
  3
Layout2
350
77
  3
Model
350
73
  0
DICTIONARY
  5
10
102
{ACAD_REACTORS
330
C
102
}
330
C
100
AcDbDictionary
281
     1
  3
ByBlock
350
19
  3
ByLayer
350
11
  3
Global
350
21
  0
DICTIONARY
  5
66
102
{ACAD_REACTORS
330
C
102
}
330
C
100
AcDbDictionary
281
     1
  3
Standard
350
67
  0
DICTIONARY
  5
5F
102
{ACAD_REACTORS
330
C
102
}
330
C
100
AcDbDictionary
281
     1
  3
Standard
350
60
  0
DICTIONARY
  5
61
102
{ACAD_REACTORS
330
C
102
}
330
C
100
AcDbDictionary
281
     1
  0
ACDBDICTIONARYWDFLT
  5
E
102
{ACAD_REACTORS
330
C
102
}
330
C
100
AcDbDictionary
281
     1
  3
Normal
350
F
100
AcDbDictionaryWithDefault
340
F
  0
DICTIONARY
  5
42
102
{ACAD_REACTORS
330
C
102
}
330
C
100
AcDbDictionary
281
     1
  3
A0
350
43
  3
A1
350
44
  3
A2
350
45
  3
A3
350
46
  3
A4
350
47
  3
A5
350
48
  3
A6
350
49
  3
A7
350
4A
  3
A8
350
4B
  3
A9
350
4C
  3
B0
350
4D
  3
B1
350
4E
  3
B2
350
4F
  3
B3
350
50
  3
B4
350
51
  3
B5
350
52
  3
B6
350
53
  0
DICTIONARY
  5
68
102
{ACAD_REACTORS
330
C
102
}
330
C
100
AcDbDictionary
281
     1
  3
Imperial24
350
69
  0
DICTIONARY
  5
64
102
{ACAD_REACTORS
330
C
102
}
330
C
100
AcDbDictionary
281
     1
  3
Standard
350
65
  0
DICTIONARY
  5
29
102
{ACAD_REACTORS
330
C
102
}
330
C
100
AcDbDictionary
281
     1
  3
2dWireframe
350
2F
  3
Basic
350
2E
  3
Brighten
350
35
  3
ColorChange
350
39
  3
Conceptual
350
32
  3
Dim
350
34
  3
EdgeColorOff
350
41
  3
Facepattern
350
38
  3
Flat
350
2A
  3
FlatWithEdges
350
2B
  3
Gouraud
350
2C
  3
GouraudWithEdges
350
2D
  3
Hidden
350
31
  3
JitterOff
350
3F
  3
Linepattern
350
37
  3
OverhangOff
350
40
  3
Realistic
350
33
  3
Shaded
350
3E
  3
Shaded with edges
350
3D
  3
Shades of Gray
350
3A
  3
Sketchy
350
3B
  3
Thicken
350
36
  3
Wireframe
350
30
  3
X-Ray
350
3C
  0
XRECORD
  5
B6
102
{ACAD_REACTORS
330
C
102
}
330
C
100
AcDbXrecord
280
     1
 90
        1
330
65
  0
DICTIONARY
  5
AE
102
{ACAD_REACTORS
330
C
102
}
330
C
100
AcDbDictionary
281
     1
  3
CANNOSCALE
350
B3
  3
CMLEADERSTYLE
350
B0
  3
CTABLESTYLE
350
AF
  3
CVIEWDETAILSTYLE
350
B1
  3
CVIEWSECTIONSTYLE
350
B2
  0
ACDBDETAILVIEWSTYLE
  5
6B
102
{ACAD_REACTORS
330
6A
102
}
330
6A
100
AcDbModelDocViewStyle
 70
     0
  3
Imperial24
290
     1
300
Imperial24
 90
        0
100
AcDbDetailViewStyle
 70
     0
 71
     0
 90
        3
 71
     1
340
55
 62
   256
 40
0.24
340
0
 62
   256
 40
0.24
300

 40
0.36
280
     3
 71
     2
340
5D
 90
       25
 62
   256
 71
     3
340
55
 62
   256
 40
0.24
 90
        1
 40
0.75
 90
        1
300
%<\AcVar ViewType \f "%tc1">% %<\AcVar ViewDetailId>%\PSCALE %<\AcVar ViewScale \f "%sn">%
 71
     4
340
5D
 90
       25
 62
   256
340
5D
 90
       25
 62
   256
280
     0
  0
IMAGEDEF
  5
7E
102
{ACAD_REACTORS
330
7D
102
}
330
7D
100
AcDbRasterImageDef
 90
        0
  1
C:\Users\Administrator\Desktop\MJ 최종\www_김민정 최종\images\pop_1.png
 10
1200.0
 20
1200.0
 11
0.3527336860670194
 21
0.3527336860670194
280
     1
281
     2
  0
IMAGEDEF
  5
AC
102
{ACAD_REACTORS
330
7D
102
}
330
7D
100
AcDbRasterImageDef
 90
        0
  1
C:\Users\Administrator\Desktop\MJ 최종\www_김민정 최종\images\pop_2.png
 10
1280.0
 20
1280.0
 11
0.3527336860670194
 21
0.3527336860670194
280
     1
281
     2
  0
LAYOUT
  5
6F
102
{ACAD_REACTORS
330
62
102
}
330
62
100
AcDbPlotSettings
  1

  2

  4

  6

 40
0.0
 41
0.0
 42
0.0
 43
0.0
 44
0.0
 45
0.0
 46
0.0
 47
0.0
 48
0.0
 49
0.0
140
0.0
141
0.0
142
1.0
143
1.0
 70
   688
 72
     0
 73
     0
 74
     5
  7

 75
    16
147
1.0
 76
     0
 77
     2
 78
   300
148
0.0
149
0.0
100
AcDbLayout
  1
Layout1
 70
     1
 71
     1
 10
0.0
 20
0.0
 11
12.0
 21
9.0
 12
0.0
 22
0.0
 32
0.0
 14
0.0
 24
0.0
 34
0.0
 15
0.0
 25
0.0
 35
0.0
146
0.0
 13
0.0
 23
0.0
 33
0.0
 16
1.0
 26
0.0
 36
0.0
 17
0.0
 27
1.0
 37
0.0
 76
     0
330
6C
  0
LAYOUT
  5
77
102
{ACAD_REACTORS
330
62
102
}
330
62
100
AcDbPlotSettings
  1

  2

  4

  6

 40
0.0
 41
0.0
 42
0.0
 43
0.0
 44
0.0
 45
0.0
 46
0.0
 47
0.0
 48
0.0
 49
0.0
140
0.0
141
0.0
142
1.0
143
1.0
 70
   688
 72
     0
 73
     0
 74
     5
  7

 75
    16
147
1.0
 76
     0
 77
     2
 78
   300
148
0.0
149
0.0
100
AcDbLayout
  1
Layout2
 70
     1
 71
     2
 10
0.0
 20
0.0
 11
12.0
 21
9.0
 12
0.0
 22
0.0
 32
0.0
 14
0.0
 24
0.0
 34
0.0
 15
0.0
 25
0.0
 35
0.0
146
0.0
 13
0.0
 23
0.0
 33
0.0
 16
1.0
 26
0.0
 36
0.0
 17
0.0
 27
1.0
 37
0.0
 76
     0
330
74
  0
LAYOUT
  5
73
102
{ACAD_REACTORS
330
62
102
}
330
62
100
AcDbPlotSettings
  1

  2

  4

  6

 40
0.0
 41
0.0
 42
0.0
 43
0.0
 44
0.0
 45
0.0
 46
0.0
 47
0.0
 48
0.0
 49
0.0
140
0.0
141
0.0
142
1.0
143
1.0
 70
  1712
 72
     0
 73
     0
 74
     0
  7

 75
     0
147
1.0
 76
     0
 77
     2
 78
   300
148
0.0
149
0.0
100
AcDbLayout
  1
Model
 70
     1
 71
     0
 10
0.0
 20
0.0
 11
12.0
 21
9.0
 12
0.0
 22
0.0
 32
0.0
 14
0.0
 24
0.0
 34
0.0
 15
0.0
 25
0.0
 35
0.0
146
0.0
 13
0.0
 23
0.0
 33
0.0
 16
1.0
 26
0.0
 36
0.0
 17
0.0
 27
1.0
 37
0.0
 76
     0
330
70
  0
MATERIAL
  5
19
102
{ACAD_XDICTIONARY
360
1A
102
}
102
{ACAD_REACTORS
330
10
102
}
330
10
100
AcDbMaterial
  1
ByBlock
 72
     0
 43
0.0208333333333333
 43
0.0
 43
0.0
 43
0.0
 43
0.0
 43
0.0208333333333333
 43
0.0
 43
0.0
 43
0.0
 43
0.0
 43
1.0
 43
0.0
 43
0.0
 43
0.0
 43
0.0
 43
1.0
 77
     0
 47
0.0208333333333333
 47
0.0
 47
0.0
 47
0.0
 47
0.0
 47
0.0208333333333333
 47
0.0
 47
0.0
 47
0.0
 47
0.0
 47
1.0
 47
0.0
 47
0.0
 47
0.0
 47
0.0
 47
1.0
171
     0
 49
0.0208333333333333
 49
0.0
 49
0.0
 49
0.0
 49
0.0
 49
0.0208333333333333
 49
0.0
 49
0.0
 49
0.0
 49
0.0
 49
1.0
 49
0.0
 49
0.0
 49
0.0
 49
0.0
 49
1.0
175
     0
142
0.0208333333333333
142
0.0
142
0.0
142
0.0
142
0.0
142
0.0208333333333333
142
0.0
142
0.0
142
0.0
142
0.0
142
1.0
142
0.0
142
0.0
142
0.0
142
0.0
142
1.0
179
     0
144
0.0208333333333333
144
0.0
144
0.0
144
0.0
144
0.0
144
0.0208333333333333
144
0.0
144
0.0
144
0.0
144
0.0
144
1.0
144
0.0
144
0.0
144
0.0
144
0.0
144
1.0
147
0.0208333333333333
147
0.0
147
0.0
147
0.0
147
0.0
147
0.0208333333333333
147
0.0
147
0.0
147
0.0
147
0.0
147
1.0
147
0.0
147
0.0
147
0.0
147
0.0
147
1.0
  0
MATERIAL
  5
11
102
{ACAD_XDICTIONARY
360
12
102
}
102
{ACAD_REACTORS
330
10
102
}
330
10
100
AcDbMaterial
  1
ByLayer
 72
     0
 43
0.0208333333333333
 43
0.0
 43
0.0
 43
0.0
 43
0.0
 43
0.0208333333333333
 43
0.0
 43
0.0
 43
0.0
 43
0.0
 43
1.0
 43
0.0
 43
0.0
 43
0.0
 43
0.0
 43
1.0
 77
     0
 47
0.0208333333333333
 47
0.0
 47
0.0
 47
0.0
 47
0.0
 47
0.0208333333333333
 47
0.0
 47
0.0
 47
0.0
 47
0.0
 47
1.0
 47
0.0
 47
0.0
 47
0.0
 47
0.0
 47
1.0
171
     0
 49
0.0208333333333333
 49
0.0
 49
0.0
 49
0.0
 49
0.0
 49
0.0208333333333333
 49
0.0
 49
0.0
 49
0.0
 49
0.0
 49
1.0
 49
0.0
 49
0.0
 49
0.0
 49
0.0
 49
1.0
175
     0
142
0.0208333333333333
142
0.0
142
0.0
142
0.0
142
0.0
142
0.0208333333333333
142
0.0
142
0.0
142
0.0
142
0.0
142
1.0
142
0.0
142
0.0
142
0.0
142
0.0
142
1.0
179
     0
144
0.0208333333333333
144
0.0
144
0.0
144
0.0
144
0.0
144
0.0208333333333333
144
0.0
144
0.0
144
0.0
144
0.0
144
1.0
144
0.0
144
0.0
144
0.0
144
0.0
144
1.0
147
0.0208333333333333
147
0.0
147
0.0
147
0.0
147
0.0
147
0.0208333333333333
147
0.0
147
0.0
147
0.0
147
0.0
147
1.0
147
0.0
147
0.0
147
0.0
147
0.0
147
1.0
  0
MATERIAL
  5
21
102
{ACAD_XDICTIONARY
360
22
102
}
102
{ACAD_REACTORS
330
10
102
}
330
10
100
AcDbMaterial
  1
Global
 72
     0
 43
0.0208333333333333
 43
0.0
 43
0.0
 43
0.0
 43
0.0
 43
0.0208333333333333
 43
0.0
 43
0.0
 43
0.0
 43
0.0
 43
1.0
 43
0.0
 43
0.0
 43
0.0
 43
0.0
 43
1.0
 77
     0
 47
0.0208333333333333
 47
0.0
 47
0.0
 47
0.0
 47
0.0
 47
0.0208333333333333
 47
0.0
 47
0.0
 47
0.0
 47
0.0
 47
1.0
 47
0.0
 47
0.0
 47
0.0
 47
0.0
 47
1.0
171
     0
 49
0.0208333333333333
 49
0.0
 49
0.0
 49
0.0
 49
0.0
 49
0.0208333333333333
 49
0.0
 49
0.0
 49
0.0
 49
0.0
 49
1.0
 49
0.0
 49
0.0
 49
0.0
 49
0.0
 49
1.0
175
     0
142
0.0208333333333333
142
0.0
142
0.0
142
0.0
142
0.0
142
0.0208333333333333
142
0.0
142
0.0
142
0.0
142
0.0
142
1.0
142
0.0
142
0.0
142
0.0
142
0.0
142
1.0
179
     0
144
0.0208333333333333
144
0.0
144
0.0
144
0.0
144
0.0
144
0.0208333333333333
144
0.0
144
0.0
144
0.0
144
0.0
144
1.0
144
0.0
144
0.0
144
0.0
144
0.0
144
1.0
147
0.0208333333333333
147
0.0
147
0.0
147
0.0
147
0.0
147
0.0208333333333333
147
0.0
147
0.0
147
0.0
147
0.0
147
1.0
147
0.0
147
0.0
147
0.0
147
0.0
147
1.0
  0
MLEADERSTYLE
  5
67
102
{ACAD_REACTORS
330
66
102
}
330
66
100
AcDbMLeaderStyle
179
     2
170
     2
171
     1
172
     0
 90
        2
 40
0.0
 41
0.0
173
     1
 91
-1056964608
340
5B
 92
       -2
290
     1
 42
0.09
291
     1
 43
0.36
  3
Standard
 44
0.18
300

342
55
174
     1
178
     6
175
     1
176
     0
 93
-1056964608
 45
0.18
292
     0
297
     0
 46
0.18
 94
-1056964608
 47
1.0
 49
1.0
140
1.0
293
     1
141
0.0
294
     1
177
     0
142
1.0
295
     1
296
     0
143
0.125
271
     0
272
     9
273
     9
298
     1
  0
MLINESTYLE
  5
60
102
{ACAD_REACTORS
330
5F
102
}
330
5F
100
AcDbMlineStyle
  2
STANDARD
 70
     0
  3

 62
   256
 51
90.0
 52
90.0
 71
     2
 49
0.5
 62
   256
  6
BYLAYER
 49
-0.5
 62
   256
  6
BYLAYER
  0
ACDBPLACEHOLDER
  5
F
102
{ACAD_REACTORS
330
E
102
}
330
E
  0
SCALE
  5
43
102
{ACAD_REACTORS
330
42
102
}
330
42
100
AcDbScale
 70
     0
300
1:1
140
1.0
141
1.0
290
     1
  0
SCALE
  5
44
102
{ACAD_REACTORS
330
42
102
}
330
42
100
AcDbScale
 70
     0
300
1/128" = 1'-0"
140
0.0078125
141
12.0
290
     0
  0
SCALE
  5
45
102
{ACAD_REACTORS
330
42
102
}
330
42
100
AcDbScale
 70
     0
300
1/64" = 1'-0"
140
0.015625
141
12.0
290
     0
  0
SCALE
  5
46
102
{ACAD_REACTORS
330
42
102
}
330
42
100
AcDbScale
 70
     0
300
1/32" = 1'-0"
140
0.03125
141
12.0
290
     0
  0
SCALE
  5
47
102
{ACAD_REACTORS
330
42
102
}
330
42
100
AcDbScale
 70
     0
300
1/16" = 1'-0"
140
0.0625
141
12.0
290
     0
  0
SCALE
  5
48
102
{ACAD_REACTORS
330
42
102
}
330
42
100
AcDbScale
 70
     0
300
3/32" = 1'-0"
140
0.09375
141
12.0
290
     0
  0
SCALE
  5
49
102
{ACAD_REACTORS
330
42
102
}
330
42
100
AcDbScale
 70
     0
300
1/8" = 1'-0"
140
0.125
141
12.0
290
     0
  0
SCALE
  5
4A
102
{ACAD_REACTORS
330
42
102
}
330
42
100
AcDbScale
 70
     0
300
3/16" = 1'-0"
140
0.1875
141
12.0
290
     0
  0
SCALE
  5
4B
102
{ACAD_REACTORS
330
42
102
}
330
42
100
AcDbScale
 70
     0
300
1/4" = 1'-0"
140
0.25
141
12.0
290
     0
  0
SCALE
  5
4C
102
{ACAD_REACTORS
330
42
102
}
330
42
100
AcDbScale
 70
     0
300
3/8" = 1'-0"
140
0.375
141
12.0
290
     0
  0
SCALE
  5
4D
102
{ACAD_REACTORS
330
42
102
}
330
42
100
AcDbScale
 70
     0
300
1/2" = 1'-0"
140
0.5
141
12.0
290
     0
  0
SCALE
  5
4E
102
{ACAD_REACTORS
330
42
102
}
330
42
100
AcDbScale
 70
     0
300
3/4" = 1'-0"
140
0.75
141
12.0
290
     0
  0
SCALE
  5
4F
102
{ACAD_REACTORS
330
42
102
}
330
42
100
AcDbScale
 70
     0
300
1" = 1'-0"
140
1.0
141
12.0
290
     0
  0
SCALE
  5
50
102
{ACAD_REACTORS
330
42
102
}
330
42
100
AcDbScale
 70
     0
300
1-1/2" = 1'-0"
140
1.5
141
12.0
290
     0
  0
SCALE
  5
51
102
{ACAD_REACTORS
330
42
102
}
330
42
100
AcDbScale
 70
     0
300
3" = 1'-0"
140
3.0
141
12.0
290
     0
  0
SCALE
  5
52
102
{ACAD_REACTORS
330
42
102
}
330
42
100
AcDbScale
 70
     0
300
6" = 1'-0"
140
6.0
141
12.0
290
     0
  0
SCALE
  5
53
102
{ACAD_REACTORS
330
42
102
}
330
42
100
AcDbScale
 70
     0
300
1'-0" = 1'-0"
140
12.0
141
12.0
290
     0
  0
ACDBSECTIONVIEWSTYLE
  5
69
102
{ACAD_REACTORS
330
68
102
}
330
68
100
AcDbModelDocViewStyle
 70
     0
  3
Imperial24
290
     1
300
Imperial24
 90
        0
100
AcDbSectionViewStyle
 70
     0
 71
     0
 90
       78
 71
     1
340
55
 62
   256
 40
0.24
340
0
340
0
 62
   256
 40
0.24
300
I, O, Q, S, X, Z
 40
0.48
 90
        3
 40
0.18
 90
        1
 71
     2
340
5D
 90
       25
 62
   256
340
5D
 90
       50
 62
   256
 40
0.24
 40
0.0
 40
0.24
 71
     3
340
55
 62
   256
 40
0.24
 90
        1
 40
0.75
 90
        1
300
%<\AcVar ViewType \f "%tc1">% %<\AcVar ViewSectionStartId>%-%<\AcVar ViewSectionEndId>%\PSCALE %<\AcVar ViewScale \f "%sn">%
 71
     4
 62
   256
 62
   257
300
ANSI31
 40
1.0
 90
        0
290
     0
290
     0
 90
        6
 40
0.0
 40
1.570796326794896
 40
0.2617993877991494
 40
1.308996938995747
 40
-0.2617993877991494
 40
1.832595714594046
  0
TABLESTYLE
  5
65
102
{ACAD_XDICTIONARY
360
B4
102
}
102
{ACAD_REACTORS
330
64
102
}
330
64
100
AcDbTableStyle
280
     0
  3
Standard
 70
     0
 71
     0
 40
0.06
 41
0.06
280
     0
281
     0
  7
Standard
140
0.18
170
     2
 62
     0
 63
     7
283
     0
 90
      512
 91
        0
  1

274
    -2
284
     1
 64
     0
275
    -2
285
     1
 65
     0
276
    -2
286
     1
 66
     0
277
    -2
287
     1
 67
     0
278
    -2
288
     1
 68
     0
279
    -2
289
     1
 69
     0
  7
Standard
140
0.25
170
     5
 62
     0
 63
     7
283
     0
 90
      512
 91
        0
  1

274
    -2
284
     1
 64
     0
275
    -2
285
     1
 65
     0
276
    -2
286
     1
 66
     0
277
    -2
287
     1
 67
     0
278
    -2
288
     1
 68
     0
279
    -2
289
     1
 69
     0
  7
Standard
140
0.18
170
     5
 62
     0
 63
     7
283
     0
 90
      512
 91
        0
  1

274
    -2
284
     1
 64
     0
275
    -2
285
     1
 65
     0
276
    -2
286
     1
 66
     0
277
    -2
287
     1
 67
     0
278
    -2
288
     1
 68
     0
279
    -2
289
     1
 69
     0
  0
VISUALSTYLE
  5
2F
102
{ACAD_REACTORS
330
29
102
}
330
29
100
AcDbVisualStyle
  2
2dWireframe
 70
     4
177
     3
291
     0
 70
    58
 90
        0
176
     1
 90
        2
176
     1
 90
        0
176
     1
 90
        0
176
     1
 40
0.6
176
     1
 40
30.0
176
     1
 62
     7
420
 16777215
176
     1
 90
        1
176
     1
 90
        4
176
     1
 62
     7
176
     1
 62
   257
176
     1
 90
        1
176
     1
 90
        1
176
     1
 40
1.0
176
     1
 90
        0
176
     1
 62
   257
176
     1
 40
1.0
176
     1
 90
        1
176
     1
 90
        6
176
     1
 90
        2
176
     1
 62
     7
176
     1
 90
        5
176
     1
 90
        0
176
     1
 90
        0
176
     1
290
     0
176
     1
 90
        1
176
     1
 40
0.0
176
     1
 90
        0
176
     1
290
     1
176
     1
290
     1
176
     1
290
     0
176
     1
290
     0
176
     1
290
     0
176
     1
290
     0
176
     1
290
     0
176
     1
290
     0
176
     1
290
     0
176
     1
 90
       50
176
     1
 40
0.0
176
     1
 40
1.0
176
     1
 90
        0
176
     1
 62
    18
420
        0
176
     1
 90
       50
176
     1
 90
        3
176
     1
 62
     5
420
      255
176
     1
290
     0
176
     1
 90
       50
176
     1
 90
       50
176
     1
 90
       50
176
     1
290
     0
176
     1
 90
       50
176
     1
 62
   256
176
     0
 40
1.0
176
     0
 90
        2
176
     1
  1
strokes_ogs.tif
176
     1
290
     0
176
     1
 40
1.0
176
     1
 40
1.0
176
     1
  0
VISUALSTYLE
  5
2E
102
{ACAD_REACTORS
330
29
102
}
330
29
100
AcDbVisualStyle
  2
Basic
 70
     7
177
     3
291
     1
 70
    58
 90
        1
176
     1
 90
        0
176
     1
 90
        1
176
     1
 90
        0
176
     1
 40
0.6
176
     1
 40
30.0
176
     1
 62
     7
420
 16777215
176
     1
 90
        0
176
     1
 90
        4
176
     1
 62
     7
176
     1
 62
   257
176
     1
 90
        1
176
     1
 90
        1
176
     1
 40
1.0
176
     1
 90
        8
176
     1
 62
     7
176
     1
 40
1.0
176
     1
 90
        1
176
     1
 90
        6
176
     1
 90
        2
176
     1
 62
     7
176
     1
 90
        5
176
     1
 90
        0
176
     1
 90
        0
176
     1
290
     0
176
     1
 90
        1
176
     1
 40
0.0
176
     1
 90
        0
176
     1
290
     0
176
     1
290
     1
176
     1
290
     1
176
     1
290
     0
176
     1
290
     0
176
     1
290
     0
176
     1
290
     0
176
     1
290
     0
176
     1
290
     0
176
     1
 90
       50
176
     1
 40
0.0
176
     1
 40
1.0
176
     1
 90
        0
176
     1
 62
    18
420
        0
176
     1
 90
       50
176
     1
 90
        3
176
     1
 62
     5
420
      255
176
     1
290
     0
176
     1
 90
       50
176
     1
 90
       50
176
     1
 90
       50
176
     1
290
     0
176
     1
 90
       50
176
     1
 62
   256
176
     0
 40
1.0
176
     0
 90
        2
176
     1
  1
strokes_ogs.tif
176
     1
290
     0
176
     1
 40
1.0
176
     1
 40
1.0
176
     1
  0
VISUALSTYLE
  5
35
102
{ACAD_REACTORS
330
29
102
}
330
29
100
AcDbVisualStyle
  2
Brighten
 70
    12
177
     3
291
     1
 70
    58
 90
        2
176
     1
 90
        2
176
     1
 90
        0
176
     1
 90
        0
176
     1
 40
0.6
176
     1
 40
30.0
176
     1
 62
     7
420
 16777215
176
     1
 90
        1
176
     1
 90
        4
176
     1
 62
     7
176
     1
 62
   257
176
     1
 90
        1
176
     1
 90
        1
176
     1
 40
1.0
176
     1
 90
        8
176
     1
 62
     7
176
     1
 40
1.0
176
     1
 90
        1
176
     1
 90
        6
176
     1
 90
        2
176
     1
 62
     7
176
     1
 90
        5
176
     1
 90
        0
176
     1
 90
        0
176
     1
290
     0
176
     1
 90
        1
176
     1
 40
50.0
176
     1
 90
        0
176
     1
290
     0
176
     1
290
     1
176
     1
290
     1
176
     1
290
     0
176
     1
290
     0
176
     1
290
     0
176
     1
290
     0
176
     1
290
     0
176
     1
290
     0
176
     1
 90
       50
176
     1
 40
0.0
176
     1
 40
1.0
176
     1
 90
        0
176
     1
 62
    18
420
        0
176
     1
 90
       50
176
     1
 90
        3
176
     1
 62
     5
420
      255
176
     1
290
     0
176
     1
 90
       50
176
     1
 90
       50
176
     1
 90
       50
176
     1
290
     0
176
     1
 90
       50
176
     1
 62
   256
176
     0
 40
1.0
176
     0
 90
        2
176
     1
  1
strokes_ogs.tif
176
     1
290
     0
176
     1
 40
1.0
176
     1
 40
1.0
176
     1
  0
VISUALSTYLE
  5
39
102
{ACAD_REACTORS
330
29
102
}
330
29
100
AcDbVisualStyle
  2
ColorChange
 70
    16
177
     3
291
     1
 70
    58
 90
        2
176
     1
 90
        2
176
     1
 90
        3
176
     1
 90
        0
176
     1
 40
0.6
176
     1
 40
30.0
176
     1
 62
     8
420
  8421504
176
     1
 90
        1
176
     1
 90
        4
176
     1
 62
     7
176
     1
 62
   257
176
     1
 90
        1
176
     1
 90
        1
176
     1
 40
1.0
176
     1
 90
        8
176
     1
 62
     8
420
  8421504
176
     1
 40
1.0
176
     1
 90
        1
176
     1
 90
        6
176
     1
 90
        2
176
     1
 62
     7
176
     1
 90
        5
176
     1
 90
        0
176
     1
 90
        0
176
     1
290
     0
176
     1
 90
        1
176
     1
 40
0.0
176
     1
 90
        0
176
     1
290
     0
176
     1
290
     1
176
     1
290
     1
176
     1
290
     0
176
     1
290
     0
176
     1
290
     0
176
     1
290
     0
176
     1
290
     0
176
     1
290
     0
176
     1
 90
       50
176
     1
 40
0.0
176
     1
 40
1.0
176
     1
 90
        0
176
     1
 62
    18
420
        0
176
     1
 90
       50
176
     1
 90
        3
176
     1
 62
     5
420
      255
176
     1
290
     0
176
     1
 90
       50
176
     1
 90
       50
176
     1
 90
       50
176
     1
290
     0
176
     1
 90
       50
176
     1
 62
   256
176
     0
 40
1.0
176
     0
 90
        2
176
     1
  1
strokes_ogs.tif
176
     1
290
     0
176
     1
 40
1.0
176
     1
 40
1.0
176
     1
  0
VISUALSTYLE
  5
32
102
{ACAD_REACTORS
330
29
102
}
330
29
100
AcDbVisualStyle
  2
Conceptual
 70
     9
177
     3
291
     0
 70
    58
 90
        3
176
     1
 90
        2
176
     1
 90
        0
176
     1
 90
        0
176
     1
 40
0.6
176
     1
 40
30.0
176
     1
 62
     7
420
 16777215
176
     1
 90
        2
176
     1
 90
        2
176
     1
 62
     7
176
     1
 62
   257
176
     1
 90
        1
176
     1
 90
        1
176
     1
 40
179.0
176
     1
 90
        8
176
     1
 62
     7
176
     1
 40
1.0
176
     1
 90
        1
176
     1
 90
        6
176
     1
 90
        2
176
     1
 62
     7
176
     1
 90
        3
176
     1
 90
        0
176
     1
 90
        0
176
     1
290
     0
176
     1
 90
        1
176
     1
 40
0.0
176
     1
 90
        0
176
     1
290
     0
176
     1
290
     1
176
     1
290
     1
176
     1
290
     0
176
     1
290
     0
176
     1
290
     0
176
     1
290
     0
176
     1
290
     0
176
     1
290
     0
176
     1
 90
       50
176
     1
 40
0.0
176
     1
 40
1.0
176
     1
 90
        0
176
     1
 62
    18
420
        0
176
     1
 90
       50
176
     1
 90
        3
176
     1
 62
     5
420
      255
176
     1
290
     0
176
     1
 90
       50
176
     1
 90
       50
176
     1
 90
       50
176
     1
290
     0
176
     1
 90
       50
176
     1
 62
   256
176
     0
 40
1.0
176
     0
 90
        2
176
     1
  1
strokes_ogs.tif
176
     1
290
     0
176
     1
 40
1.0
176
     1
 40
1.0
176
     1
  0
VISUALSTYLE
  5
34
102
{ACAD_REACTORS
330
29
102
}
330
29
100
AcDbVisualStyle
  2
Dim
 70
    11
177
     3
291
     1
 70
    58
 90
        2
176
     1
 90
        2
176
     1
 90
        0
176
     1
 90
        0
176
     1
 40
0.6
176
     1
 40
30.0
176
     1
 62
     7
420
 16777215
176
     1
 90
        1
176
     1
 90
        4
176
     1
 62
     7
176
     1
 62
   257
176
     1
 90
        1
176
     1
 90
        1
176
     1
 40
1.0
176
     1
 90
        8
176
     1
 62
     7
176
     1
 40
1.0
176
     1
 90
        1
176
     1
 90
        6
176
     1
 90
        2
176
     1
 62
     7
176
     1
 90
        5
176
     1
 90
        0
176
     1
 90
        0
176
     1
290
     0
176
     1
 90
        1
176
     1
 40
-50.0
176
     1
 90
        0
176
     1
290
     0
176
     1
290
     1
176
     1
290
     1
176
     1
290
     0
176
     1
290
     0
176
     1
290
     0
176
     1
290
     0
176
     1
290
     0
176
     1
290
     0
176
     1
 90
       50
176
     1
 40
0.0
176
     1
 40
1.0
176
     1
 90
        0
176
     1
 62
    18
420
        0
176
     1
 90
       50
176
     1
 90
        3
176
     1
 62
     5
420
      255
176
     1
290
     0
176
     1
 90
       50
176
     1
 90
       50
176
     1
 90
       50
176
     1
290
     0
176
     1
 90
       50
176
     1
 62
   256
176
     0
 40
1.0
176
     0
 90
        2
176
     1
  1
strokes_ogs.tif
176
     1
290
     0
176
     1
 40
1.0
176
     1
 40
1.0
176
     1
  0
VISUALSTYLE
  5
41
102
{ACAD_REACTORS
330
29
102
}
330
29
100
AcDbVisualStyle
  2
EdgeColorOff
 70
    22
177
     3
291
     1
 70
    58
 90
        2
176
     0
 90
        2
176
     0
 90
        0
176
     0
 90
        0
176
     0
 40
0.6
176
     0
 40
30.0
176
     0
 62
     7
420
 16777215
176
     0
 90
        1
176
     0
 90
        4
176
     0
 62
     7
176
     0
 62
   257
176
     0
 90
        1
176
     0
 90
        1
176
     0
 40
1.0
176
     0
 90
        8
176
     2
 62
     7
176
     0
 40
1.0
176
     0
 90
        1
176
     0
 90
        6
176
     0
 90
        2
176
     0
 62
     7
176
     0
 90
        5
176
     0
 90
        0
176
     0
 90
        0
176
     0
290
     0
176
     0
 90
        1
176
     0
 40
0.0
176
     0
 90
        0
176
     0
290
     0
176
     0
290
     1
176
     0
290
     1
176
     0
290
     0
176
     0
290
     0
176
     0
290
     0
176
     0
290
     0
176
     0
290
     0
176
     0
290
     0
176
     0
 90
       50
176
     0
 40
0.0
176
     0
 40
1.0
176
     0
 90
        0
176
     0
 62
    18
420
        0
176
     0
 90
       50
176
     0
 90
        3
176
     0
 62
     5
420
      255
176
     0
290
     0
176
     0
 90
       50
176
     0
 90
       50
176
     0
 90
       50
176
     0
290
     0
176
     0
 90
       50
176
     0
 62
   256
176
     0
 40
1.0
176
     0
 90
        2
176
     0
  1
strokes_ogs.tif
176
     0
290
     0
176
     0
 40
1.0
176
     0
 40
1.0
176
     0
  0
VISUALSTYLE
  5
38
102
{ACAD_REACTORS
330
29
102
}
330
29
100
AcDbVisualStyle
  2
Facepattern
 70
    15
177
     3
291
     1
 70
    58
 90
        2
176
     1
 90
        2
176
     1
 90
        0
176
     1
 90
        0
176
     1
 40
0.6
176
     1
 40
30.0
176
     1
 62
     7
420
 16777215
176
     1
 90
        1
176
     1
 90
        4
176
     1
 62
     7
176
     1
 62
   257
176
     1
 90
        1
176
     1
 90
        1
176
     1
 40
1.0
176
     1
 90
        8
176
     1
 62
     7
176
     1
 40
1.0
176
     1
 90
        1
176
     1
 90
        6
176
     1
 90
        2
176
     1
 62
     7
176
     1
 90
        5
176
     1
 90
        0
176
     1
 90
        0
176
     1
290
     0
176
     1
 90
        1
176
     1
 40
0.0
176
     1
 90
        0
176
     1
290
     0
176
     1
290
     1
176
     1
290
     1
176
     1
290
     0
176
     1
290
     0
176
     1
290
     0
176
     1
290
     0
176
     1
290
     0
176
     1
290
     0
176
     1
 90
       50
176
     1
 40
0.0
176
     1
 40
1.0
176
     1
 90
        0
176
     1
 62
    18
420
        0
176
     1
 90
       50
176
     1
 90
        3
176
     1
 62
     5
420
      255
176
     1
290
     0
176
     1
 90
       50
176
     1
 90
       50
176
     1
 90
       50
176
     1
290
     0
176
     1
 90
       50
176
     1
 62
   256
176
     0
 40
1.0
176
     0
 90
        2
176
     1
  1
strokes_ogs.tif
176
     1
290
     0
176
     1
 40
1.0
176
     1
 40
1.0
176
     1
  0
VISUALSTYLE
  5
2A
102
{ACAD_REACTORS
330
29
102
}
330
29
100
AcDbVisualStyle
  2
Flat
 70
     0
177
     3
291
     1
 70
    58
 90
        2
176
     1
 90
        1
176
     1
 90
        1
176
     1
 90
        2
176
     1
 40
0.6
176
     1
 40
30.0
176
     1
 62
     7
420
 16777215
176
     1
 90
        0
176
     1
 90
        0
176
     1
 62
     7
176
     1
 62
   257
176
     1
 90
        1
176
     1
 90
        1
176
     1
 40
1.0
176
     1
 90
        8
176
     1
 62
     7
176
     1
 40
1.0
176
     1
 90
        1
176
     1
 90
        6
176
     1
 90
        2
176
     1
 62
     7
176
     1
 90
        5
176
     1
 90
        0
176
     1
 90
        0
176
     1
290
     0
176
     1
 90
       13
176
     1
 40
0.0
176
     1
 90
        0
176
     1
290
     0
176
     1
290
     1
176
     1
290
     1
176
     1
290
     0
176
     1
290
     0
176
     1
290
     0
176
     1
290
     0
176
     1
290
     0
176
     1
290
     0
176
     1
 90
       50
176
     1
 40
0.0
176
     1
 40
1.0
176
     1
 90
        0
176
     1
 62
    18
420
        0
176
     1
 90
       50
176
     1
 90
        3
176
     1
 62
     5
420
      255
176
     1
290
     0
176
     1
 90
       50
176
     1
 90
       50
176
     1
 90
       50
176
     1
290
     0
176
     1
 90
       50
176
     1
 62
   256
176
     0
 40
1.0
176
     0
 90
        2
176
     1
  1
strokes_ogs.tif
176
     1
290
     0
176
     1
 40
1.0
176
     1
 40
1.0
176
     1
  0
VISUALSTYLE
  5
2B
102
{ACAD_REACTORS
330
29
102
}
330
29
100
AcDbVisualStyle
  2
FlatWithEdges
 70
     1
177
     3
291
     1
 70
    58
 90
        2
176
     1
 90
        1
176
     1
 90
        1
176
     1
 90
        2
176
     1
 40
0.6
176
     1
 40
30.0
176
     1
 62
     7
420
 16777215
176
     1
 90
        1
176
     1
 90
        0
176
     1
 62
     7
176
     1
 62
   257
176
     1
 90
        1
176
     1
 90
        1
176
     1
 40
1.0
176
     1
 90
        0
176
     1
 62
   257
176
     1
 40
1.0
176
     1
 90
        1
176
     1
 90
        6
176
     1
 90
        2
176
     1
 62
     7
176
     1
 90
        5
176
     1
 90
        0
176
     1
 90
        0
176
     1
290
     0
176
     1
 90
       13
176
     1
 40
0.0
176
     1
 90
        0
176
     1
290
     0
176
     1
290
     1
176
     1
290
     1
176
     1
290
     0
176
     1
290
     0
176
     1
290
     0
176
     1
290
     0
176
     1
290
     0
176
     1
290
     0
176
     1
 90
       50
176
     1
 40
0.0
176
     1
 40
1.0
176
     1
 90
        0
176
     1
 62
    18
420
        0
176
     1
 90
       50
176
     1
 90
        3
176
     1
 62
     5
420
      255
176
     1
290
     0
176
     1
 90
       50
176
     1
 90
       50
176
     1
 90
       50
176
     1
290
     0
176
     1
 90
       50
176
     1
 62
   256
176
     0
 40
1.0
176
     0
 90
        2
176
     1
  1
strokes_ogs.tif
176
     1
290
     0
176
     1
 40
1.0
176
     1
 40
1.0
176
     1
  0
VISUALSTYLE
  5
2C
102
{ACAD_REACTORS
330
29
102
}
330
29
100
AcDbVisualStyle
  2
Gouraud
 70
     2
177
     3
291
     1
 70
    58
 90
        2
176
     1
 90
        2
176
     1
 90
        1
176
     1
 90
        2
176
     1
 40
0.6
176
     1
 40
30.0
176
     1
 62
     7
420
 16777215
176
     1
 90
        0
176
     1
 90
        0
176
     1
 62
     7
176
     1
 62
   257
176
     1
 90
        1
176
     1
 90
        1
176
     1
 40
1.0
176
     1
 90
        0
176
     1
 62
     7
176
     1
 40
1.0
176
     1
 90
        1
176
     1
 90
        6
176
     1
 90
        2
176
     1
 62
     7
176
     1
 90
        5
176
     1
 90
        0
176
     1
 90
        0
176
     1
290
     0
176
     1
 90
       13
176
     1
 40
0.0
176
     1
 90
        0
176
     1
290
     0
176
     1
290
     1
176
     1
290
     1
176
     1
290
     0
176
     1
290
     0
176
     1
290
     0
176
     1
290
     0
176
     1
290
     0
176
     1
290
     0
176
     1
 90
       50
176
     1
 40
0.0
176
     1
 40
1.0
176
     1
 90
        0
176
     1
 62
    18
420
        0
176
     1
 90
       50
176
     1
 90
        3
176
     1
 62
     5
420
      255
176
     1
290
     0
176
     1
 90
       50
176
     1
 90
       50
176
     1
 90
       50
176
     1
290
     0
176
     1
 90
       50
176
     1
 62
   256
176
     0
 40
1.0
176
     0
 90
        2
176
     1
  1
strokes_ogs.tif
176
     1
290
     0
176
     1
 40
1.0
176
     1
 40
1.0
176
     1
  0
VISUALSTYLE
  5
2D
102
{ACAD_REACTORS
330
29
102
}
330
29
100
AcDbVisualStyle
  2
GouraudWithEdges
 70
     3
177
     3
291
     1
 70
    58
 90
        2
176
     1
 90
        2
176
     1
 90
        1
176
     1
 90
        2
176
     1
 40
0.6
176
     1
 40
30.0
176
     1
 62
     7
420
 16777215
176
     1
 90
        1
176
     1
 90
        0
176
     1
 62
     7
176
     1
 62
   257
176
     1
 90
        1
176
     1
 90
        1
176
     1
 40
1.0
176
     1
 90
        0
176
     1
 62
   257
176
     1
 40
1.0
176
     1
 90
        1
176
     1
 90
        6
176
     1
 90
        2
176
     1
 62
     7
176
     1
 90
        5
176
     1
 90
        0
176
     1
 90
        0
176
     1
290
     0
176
     1
 90
       13
176
     1
 40
0.0
176
     1
 90
        0
176
     1
290
     0
176
     1
290
     1
176
     1
290
     1
176
     1
290
     0
176
     1
290
     0
176
     1
290
     0
176
     1
290
     0
176
     1
290
     0
176
     1
290
     0
176
     1
 90
       50
176
     1
 40
0.0
176
     1
 40
1.0
176
     1
 90
        0
176
     1
 62
    18
420
        0
176
     1
 90
       50
176
     1
 90
        3
176
     1
 62
     5
420
      255
176
     1
290
     0
176
     1
 90
       50
176
     1
 90
       50
176
     1
 90
       50
176
     1
290
     0
176
     1
 90
       50
176
     1
 62
   256
176
     0
 40
1.0
176
     0
 90
        2
176
     1
  1
strokes_ogs.tif
176
     1
290
     0
176
     1
 40
1.0
176
     1
 40
1.0
176
     1
  0
VISUALSTYLE
  5
31
102
{ACAD_REACTORS
330
29
102
}
330
29
100
AcDbVisualStyle
  2
Hidden
 70
     6
177
     3
291
     0
 70
    58
 90
        1
176
     1
 90
        2
176
     1
 90
        2
176
     1
 90
        0
176
     1
 40
0.6
176
     1
 40
30.0
176
     1
 62
     7
420
 16777215
176
     1
 90
        2
176
     1
 90
        2
176
     1
 62
     7
176
     1
 62
   257
176
     1
 90
        2
176
     1
 90
        1
176
     1
 40
40.0
176
     1
 90
        0
176
     1
 62
   257
176
     1
 40
1.0
176
     1
 90
        1
176
     1
 90
        6
176
     1
 90
        2
176
     1
 62
     7
176
     1
 90
        3
176
     1
 90
        0
176
     1
 90
        0
176
     1
290
     0
176
     1
 90
        1
176
     1
 40
0.0
176
     1
 90
        0
176
     1
290
     0
176
     1
290
     1
176
     1
290
     1
176
     1
290
     0
176
     1
290
     0
176
     1
290
     0
176
     1
290
     0
176
     1
290
     0
176
     1
290
     0
176
     1
 90
       50
176
     1
 40
0.0
176
     1
 40
1.0
176
     1
 90
        0
176
     1
 62
    18
420
        0
176
     1
 90
       50
176
     1
 90
        3
176
     1
 62
     5
420
      255
176
     1
290
     0
176
     1
 90
       50
176
     1
 90
       50
176
     1
 90
       50
176
     1
290
     0
176
     1
 90
       50
176
     1
 62
   256
176
     0
 40
1.0
176
     0
 90
        2
176
     1
  1
strokes_ogs.tif
176
     1
290
     0
176
     1
 40
1.0
176
     1
 40
1.0
176
     1
  0
VISUALSTYLE
  5
3F
102
{ACAD_REACTORS
330
29
102
}
330
29
100
AcDbVisualStyle
  2
JitterOff
 70
    20
177
     3
291
     1
 70
    58
 90
        2
176
     0
 90
        2
176
     0
 90
        0
176
     0
 90
        0
176
     0
 40
0.6
176
     0
 40
30.0
176
     0
 62
     7
420
 16777215
176
     0
 90
        1
176
     0
 90
        4
176
     0
 62
     7
176
     0
 62
   257
176
     0
 90
        1
176
     0
 90
        1
176
     0
 40
1.0
176
     0
 90
       10
176
     2
 62
     7
176
     0
 40
1.0
176
     0
 90
        1
176
     0
 90
        6
176
     0
 90
        2
176
     0
 62
     7
176
     0
 90
        5
176
     0
 90
        0
176
     0
 90
        0
176
     0
290
     0
176
     0
 90
        1
176
     0
 40
0.0
176
     0
 90
        0
176
     0
290
     0
176
     0
290
     1
176
     0
290
     1
176
     0
290
     0
176
     0
290
     0
176
     0
290
     0
176
     0
290
     0
176
     0
290
     0
176
     0
290
     0
176
     0
 90
       50
176
     0
 40
0.0
176
     0
 40
1.0
176
     0
 90
        0
176
     0
 62
    18
420
        0
176
     0
 90
       50
176
     0
 90
        3
176
     0
 62
     5
420
      255
176
     0
290
     0
176
     0
 90
       50
176
     0
 90
       50
176
     0
 90
       50
176
     0
290
     0
176
     0
 90
       50
176
     0
 62
   256
176
     0
 40
1.0
176
     0
 90
        2
176
     0
  1
strokes_ogs.tif
176
     0
290
     0
176
     0
 40
1.0
176
     0
 40
1.0
176
     0
  0
VISUALSTYLE
  5
37
102
{ACAD_REACTORS
330
29
102
}
330
29
100
AcDbVisualStyle
  2
Linepattern
 70
    14
177
     3
291
     1
 70
    58
 90
        2
176
     1
 90
        2
176
     1
 90
        0
176
     1
 90
        0
176
     1
 40
0.6
176
     1
 40
30.0
176
     1
 62
     7
420
 16777215
176
     1
 90
        1
176
     1
 90
        4
176
     1
 62
     7
176
     1
 62
   257
176
     1
 90
        7
176
     1
 90
        7
176
     1
 40
1.0
176
     1
 90
        8
176
     1
 62
     7
176
     1
 40
1.0
176
     1
 90
        1
176
     1
 90
        6
176
     1
 90
        2
176
     1
 62
     7
176
     1
 90
        5
176
     1
 90
        0
176
     1
 90
        0
176
     1
290
     0
176
     1
 90
        1
176
     1
 40
0.0
176
     1
 90
        0
176
     1
290
     0
176
     1
290
     1
176
     1
290
     1
176
     1
290
     0
176
     1
290
     0
176
     1
290
     0
176
     1
290
     0
176
     1
290
     0
176
     1
290
     0
176
     1
 90
       50
176
     1
 40
0.0
176
     1
 40
1.0
176
     1
 90
        0
176
     1
 62
    18
420
        0
176
     1
 90
       50
176
     1
 90
        3
176
     1
 62
     5
420
      255
176
     1
290
     0
176
     1
 90
       50
176
     1
 90
       50
176
     1
 90
       50
176
     1
290
     0
176
     1
 90
       50
176
     1
 62
   256
176
     0
 40
1.0
176
     0
 90
        2
176
     1
  1
strokes_ogs.tif
176
     1
290
     0
176
     1
 40
1.0
176
     1
 40
1.0
176
     1
  0
VISUALSTYLE
  5
40
102
{ACAD_REACTORS
330
29
102
}
330
29
100
AcDbVisualStyle
  2
OverhangOff
 70
    21
177
     3
291
     1
 70
    58
 90
        2
176
     0
 90
        2
176
     0
 90
        0
176
     0
 90
        0
176
     0
 40
0.6
176
     0
 40
30.0
176
     0
 62
     7
420
 16777215
176
     0
 90
        1
176
     0
 90
        4
176
     0
 62
     7
176
     0
 62
   257
176
     0
 90
        1
176
     0
 90
        1
176
     0
 40
1.0
176
     0
 90
        9
176
     2
 62
     7
176
     0
 40
1.0
176
     0
 90
        1
176
     0
 90
        6
176
     0
 90
        2
176
     0
 62
     7
176
     0
 90
        5
176
     0
 90
        0
176
     0
 90
        0
176
     0
290
     0
176
     0
 90
        1
176
     0
 40
0.0
176
     0
 90
        0
176
     0
290
     0
176
     0
290
     1
176
     0
290
     1
176
     0
290
     0
176
     0
290
     0
176
     0
290
     0
176
     0
290
     0
176
     0
290
     0
176
     0
290
     0
176
     0
 90
       50
176
     0
 40
0.0
176
     0
 40
1.0
176
     0
 90
        0
176
     0
 62
    18
420
        0
176
     0
 90
       50
176
     0
 90
        3
176
     0
 62
     5
420
      255
176
     0
290
     0
176
     0
 90
       50
176
     0
 90
       50
176
     0
 90
       50
176
     0
290
     0
176
     0
 90
       50
176
     0
 62
   256
176
     0
 40
1.0
176
     0
 90
        2
176
     0
  1
strokes_ogs.tif
176
     0
290
     0
176
     0
 40
1.0
176
     0
 40
1.0
176
     0
  0
VISUALSTYLE
  5
33
102
{ACAD_REACTORS
330
29
102
}
330
29
100
AcDbVisualStyle
  2
Realistic
 70
     8
177
     3
291
     0
 70
    58
 90
        2
176
     1
 90
        3
176
     1
 90
        0
176
     1
 90
        2
176
     1
 40
0.6
176
     1
 40
30.0
176
     1
 62
     7
420
 16777215
176
     1
 90
        0
176
     1
 90
        0
176
     1
 62
     7
176
     1
 62
   257
176
     1
 90
        1
176
     1
 90
        1
176
     1
 40
1.0
176
     1
 90
        8
176
     1
 62
   257
176
     1
 40
1.0
176
     1
 90
        1
176
     1
 90
        6
176
     1
 90
        2
176
     1
 62
     7
176
     1
 90
        3
176
     1
 90
        0
176
     1
 90
        0
176
     1
290
     0
176
     1
 90
       13
176
     1
 40
0.0
176
     1
 90
        0
176
     1
290
     0
176
     1
290
     1
176
     1
290
     1
176
     1
290
     0
176
     1
290
     0
176
     1
290
     0
176
     1
290
     0
176
     1
290
     0
176
     1
290
     0
176
     1
 90
       50
176
     1
 40
0.0
176
     1
 40
1.0
176
     1
 90
        0
176
     1
 62
    18
420
        0
176
     1
 90
       50
176
     1
 90
        3
176
     1
 62
     5
420
      255
176
     1
290
     0
176
     1
 90
       50
176
     1
 90
       50
176
     1
 90
       50
176
     1
290
     0
176
     1
 90
       50
176
     1
 62
   256
176
     0
 40
1.0
176
     0
 90
        2
176
     1
  1
strokes_ogs.tif
176
     1
290
     0
176
     1
 40
1.0
176
     1
 40
1.0
176
     1
  0
VISUALSTYLE
  5
3E
102
{ACAD_REACTORS
330
29
102
}
330
29
100
AcDbVisualStyle
  2
Shaded
 70
    27
177
     3
291
     0
 70
    58
 90
        2
176
     1
 90
        2
176
     1
 90
        1
176
     1
 90
        2
176
     1
 40
0.6
176
     1
 40
30.0
176
     1
 62
     7
420
 16777215
176
     1
 90
        0
176
     1
 90
        4
176
     1
 62
     7
176
     1
 62
   257
176
     1
 90
        1
176
     1
 90
        1
176
     1
 40
1.0
176
     1
 90
        8
176
     1
 62
   257
176
     1
 40
1.0
176
     1
 90
        1
176
     1
 90
        6
176
     1
 90
        2
176
     1
 62
     8
420
  7895160
176
     1
 90
        3
176
     1
 90
        0
176
     1
 90
        0
176
     1
290
     0
176
     1
 90
        5
176
     1
 40
0.0
176
     1
 90
        0
176
     1
290
     0
176
     1
290
     1
176
     1
290
     1
176
     1
290
     0
176
     1
290
     0
176
     1
290
     0
176
     1
290
     0
176
     1
290
     0
176
     1
290
     0
176
     1
 90
       50
176
     1
 40
0.0
176
     1
 40
1.0
176
     1
 90
        0
176
     1
 62
    18
420
        0
176
     1
 90
       50
176
     1
 90
        3
176
     1
 62
     5
420
      255
176
     1
290
     0
176
     1
 90
       50
176
     1
 90
       50
176
     1
 90
       50
176
     1
290
     0
176
     1
 90
       50
176
     1
 62
   256
176
     0
 40
1.0
176
     0
 90
        2
176
     1
  1
strokes_ogs.tif
176
     1
290
     0
176
     1
 40
1.0
176
     1
 40
1.0
176
     1
  0
VISUALSTYLE
  5
3D
102
{ACAD_REACTORS
330
29
102
}
330
29
100
AcDbVisualStyle
  2
Shaded with edges
 70
    26
177
     3
291
     0
 70
    58
 90
        2
176
     1
 90
        2
176
     1
 90
        1
176
     1
 90
        2
176
     1
 40
0.6
176
     1
 40
30.0
176
     1
 62
     7
420
 16777215
176
     1
 90
        1
176
     1
 90
        2
176
     1
 62
     7
176
     1
 62
   257
176
     1
 90
        2
176
     1
 90
        1
176
     1
 40
1.0
176
     1
 90
        8
176
     1
 62
   257
176
     1
 40
1.0
176
     1
 90
        1
176
     1
 90
        6
176
     1
 90
        2
176
     1
 62
     7
176
     1
 90
        3
176
     1
 90
        0
176
     1
 90
        0
176
     1
290
     0
176
     1
 90
        5
176
     1
 40
0.0
176
     1
 90
        0
176
     1
290
     0
176
     1
290
     1
176
     1
290
     1
176
     1
290
     0
176
     1
290
     0
176
     1
290
     0
176
     1
290
     0
176
     1
290
     0
176
     1
290
     0
176
     1
 90
       50
176
     1
 40
0.0
176
     1
 40
1.0
176
     1
 90
        0
176
     1
 62
    18
420
        0
176
     1
 90
       50
176
     1
 90
        3
176
     1
 62
     5
420
      255
176
     1
290
     0
176
     1
 90
       50
176
     1
 90
       50
176
     1
 90
       50
176
     1
290
     0
176
     1
 90
       50
176
     1
 62
   256
176
     0
 40
1.0
176
     0
 90
        2
176
     1
  1
strokes_ogs.tif
176
     1
290
     0
176
     1
 40
1.0
176
     1
 40
1.0
176
     1
  0
VISUALSTYLE
  5
3A
102
{ACAD_REACTORS
330
29
102
}
330
29
100
AcDbVisualStyle
  2
Shades of Gray
 70
    23
177
     3
291
     0
 70
    58
 90
        2
176
     1
 90
        2
176
     1
 90
        3
176
     1
 90
        0
176
     1
 40
0.6
176
     1
 40
30.0
176
     1
 62
     7
420
 16777215
176
     1
 90
        2
176
     1
 90
        2
176
     1
 62
     7
176
     1
 62
     7
176
     1
 90
        1
176
     1
 90
        1
176
     1
 40
40.0
176
     1
 90
        8
176
     1
 62
     7
176
     1
 40
1.0
176
     1
 90
        1
176
     1
 90
        6
176
     1
 90
        2
176
     1
 62
     7
176
     1
 90
        3
176
     1
 90
        0
176
     1
 90
        0
176
     1
290
     0
176
     1
 90
        1
176
     1
 40
0.0
176
     1
 90
        0
176
     1
290
     0
176
     1
290
     1
176
     1
290
     1
176
     1
290
     0
176
     1
290
     0
176
     1
290
     0
176
     1
290
     0
176
     1
290
     0
176
     1
290
     0
176
     1
 90
       50
176
     1
 40
0.0
176
     1
 40
1.0
176
     1
 90
        0
176
     1
 62
    18
420
        0
176
     1
 90
       50
176
     1
 90
        3
176
     1
 62
     5
420
      255
176
     1
290
     0
176
     1
 90
       50
176
     1
 90
       50
176
     1
 90
       50
176
     1
290
     0
176
     1
 90
       50
176
     1
 62
   256
176
     0
 40
1.0
176
     0
 90
        2
176
     1
  1
strokes_ogs.tif
176
     1
290
     0
176
     1
 40
1.0
176
     1
 40
1.0
176
     1
  0
VISUALSTYLE
  5
3B
102
{ACAD_REACTORS
330
29
102
}
330
29
100
AcDbVisualStyle
  2
Sketchy
 70
    24
177
     3
291
     0
 70
    58
 90
        1
176
     1
 90
        2
176
     1
 90
        2
176
     1
 90
        0
176
     1
 40
0.6
176
     1
 40
30.0
176
     1
 62
     7
420
 16777215
176
     1
 90
        2
176
     1
 90
        2
176
     1
 62
     7
176
     1
 62
     7
176
     1
 90
        1
176
     1
 90
        1
176
     1
 40
40.0
176
     1
 90
       11
176
     1
 62
     7
176
     1
 40
1.0
176
     1
 90
        1
176
     1
 90
        6
176
     1
 90
        2
176
     1
 62
     7
176
     1
 90
        6
176
     1
 90
        0
176
     1
 90
        0
176
     1
290
     0
176
     1
 90
        1
176
     1
 40
0.0
176
     1
 90
        0
176
     1
290
     0
176
     1
290
     1
176
     1
290
     1
176
     1
290
     0
176
     1
290
     0
176
     1
290
     0
176
     1
290
     0
176
     1
290
     0
176
     1
290
     0
176
     1
 90
       50
176
     1
 40
0.0
176
     1
 40
1.0
176
     1
 90
        0
176
     1
 62
    18
420
        0
176
     1
 90
       50
176
     1
 90
        3
176
     1
 62
     5
420
      255
176
     1
290
     0
176
     1
 90
       50
176
     1
 90
       50
176
     1
 90
       50
176
     1
290
     0
176
     1
 90
       50
176
     1
 62
   256
176
     0
 40
1.0
176
     0
 90
        2
176
     1
  1
strokes_ogs.tif
176
     1
290
     0
176
     1
 40
1.0
176
     1
 40
1.0
176
     1
  0
VISUALSTYLE
  5
36
102
{ACAD_REACTORS
330
29
102
}
330
29
100
AcDbVisualStyle
  2
Thicken
 70
    13
177
     3
291
     1
 70
    58
 90
        2
176
     1
 90
        2
176
     1
 90
        0
176
     1
 90
        0
176
     1
 40
0.6
176
     1
 40
30.0
176
     1
 62
     7
420
 16777215
176
     1
 90
        1
176
     1
 90
        4
176
     1
 62
     7
176
     1
 62
   257
176
     1
 90
        1
176
     1
 90
        1
176
     1
 40
1.0
176
     1
 90
       12
176
     1
 62
     7
176
     1
 40
1.0
176
     1
 90
        1
176
     1
 90
        6
176
     1
 90
        2
176
     1
 62
     7
176
     1
 90
        5
176
     1
 90
        0
176
     1
 90
        0
176
     1
290
     0
176
     1
 90
        1
176
     1
 40
0.0
176
     1
 90
        0
176
     1
290
     0
176
     1
290
     1
176
     1
290
     1
176
     1
290
     0
176
     1
290
     0
176
     1
290
     0
176
     1
290
     0
176
     1
290
     0
176
     1
290
     0
176
     1
 90
       50
176
     1
 40
0.0
176
     1
 40
1.0
176
     1
 90
        0
176
     1
 62
    18
420
        0
176
     1
 90
       50
176
     1
 90
        3
176
     1
 62
     5
420
      255
176
     1
290
     0
176
     1
 90
       50
176
     1
 90
       50
176
     1
 90
       50
176
     1
290
     0
176
     1
 90
       50
176
     1
 62
   256
176
     0
 40
1.0
176
     0
 90
        2
176
     1
  1
strokes_ogs.tif
176
     1
290
     0
176
     1
 40
1.0
176
     1
 40
1.0
176
     1
  0
VISUALSTYLE
  5
30
102
{ACAD_REACTORS
330
29
102
}
330
29
100
AcDbVisualStyle
  2
Wireframe
 70
     5
177
     3
291
     0
 70
    58
 90
        0
176
     1
 90
        2
176
     1
 90
        0
176
     1
 90
        0
176
     1
 40
0.6
176
     1
 40
30.0
176
     1
 62
     7
420
 16777215
176
     1
 90
        1
176
     1
 90
        4
176
     1
 62
     7
176
     1
 62
   257
176
     1
 90
        1
176
     1
 90
        1
176
     1
 40
1.0
176
     1
 90
        0
176
     1
 62
   257
176
     1
 40
1.0
176
     1
 90
        1
176
     1
 90
        6
176
     1
 90
        2
176
     1
 62
     7
176
     1
 90
        3
176
     1
 90
        0
176
     1
 90
        0
176
     1
290
     0
176
     1
 90
        1
176
     1
 40
0.0
176
     1
 90
        0
176
     1
290
     0
176
     1
290
     1
176
     1
290
     1
176
     1
290
     0
176
     1
290
     0
176
     1
290
     0
176
     1
290
     0
176
     1
290
     0
176
     1
290
     0
176
     1
 90
       50
176
     1
 40
0.0
176
     1
 40
1.0
176
     1
 90
        0
176
     1
 62
    18
420
        0
176
     1
 90
       50
176
     1
 90
        3
176
     1
 62
     5
420
      255
176
     1
290
     0
176
     1
 90
       50
176
     1
 90
       50
176
     1
 90
       50
176
     1
290
     0
176
     1
 90
       50
176
     1
 62
   256
176
     0
 40
1.0
176
     0
 90
        2
176
     1
  1
strokes_ogs.tif
176
     1
290
     0
176
     1
 40
1.0
176
     1
 40
1.0
176
     1
  0
VISUALSTYLE
  5
3C
102
{ACAD_REACTORS
330
29
102
}
330
29
100
AcDbVisualStyle
  2
X-Ray
 70
    25
177
     3
291
     0
 70
    58
 90
        2
176
     1
 90
        2
176
     1
 90
        1
176
     1
 90
        1
176
     1
 40
0.5
176
     1
 40
30.0
176
     1
 62
     7
420
 16777215
176
     1
 90
        1
176
     1
 90
        0
176
     1
 62
     7
176
     1
 62
   257
176
     1
 90
        1
176
     1
 90
        1
176
     1
 40
1.0
176
     1
 90
        8
176
     1
 62
     7
176
     1
 40
1.0
176
     1
 90
        1
176
     1
 90
        6
176
     1
 90
        2
176
     1
 62
     7
176
     1
 90
        3
176
     1
 90
        0
176
     1
 90
        0
176
     1
290
     0
176
     1
 90
       13
176
     1
 40
0.0
176
     1
 90
        0
176
     1
290
     0
176
     1
290
     1
176
     1
290
     1
176
     1
290
     0
176
     1
290
     0
176
     1
290
     0
176
     1
290
     0
176
     1
290
     0
176
     1
290
     0
176
     1
 90
       50
176
     1
 40
0.0
176
     1
 40
1.0
176
     1
 90
        0
176
     1
 62
    18
420
        0
176
     1
 90
       50
176
     1
 90
        3
176
     1
 62
     5
420
      255
176
     1
290
     0
176
     1
 90
       50
176
     1
 90
       50
176
     1
 90
       50
176
     1
290
     0
176
     1
 90
       50
176
     1
 62
   256
176
     0
 40
1.0
176
     0
 90
        2
176
     1
  1
strokes_ogs.tif
176
     1
290
     0
176
     1
 40
1.0
176
     1
 40
1.0
176
     1
  0
DICTIONARYVAR
  5
B3
102
{ACAD_REACTORS
330
AE
102
}
330
AE
100
DictionaryVariables
280
     0
  1
1:1
  0
DICTIONARYVAR
  5
B0
102
{ACAD_REACTORS
330
AE
102
}
330
AE
100
DictionaryVariables
280
     0
  1
STANDARD
  0
DICTIONARYVAR
  5
AF
102
{ACAD_REACTORS
330
AE
102
}
330
AE
100
DictionaryVariables
280
     0
  1
STANDARD
  0
DICTIONARYVAR
  5
B1
102
{ACAD_REACTORS
330
AE
102
}
330
AE
100
DictionaryVariables
280
     0
  1
Imperial24
  0
DICTIONARYVAR
  5
B2
102
{ACAD_REACTORS
330
AE
102
}
330
AE
100
DictionaryVariables
280
     0
  1
Imperial24
  0
DICTIONARY
  5
1A
330
19
100
AcDbDictionary
280
     1
281
     1
  3
BUMPTILE
360
1C
  3
DIFFUSETILE
360
1B
  3
OPACITYTILE
360
1F
  3
REFLECTIONTILE
360
1E
  3
REFRACTIONTILE
360
20
  3
SPECULARTILE
360
1D
  0
DICTIONARY
  5
12
330
11
100
AcDbDictionary
280
     1
281
     1
  3
BUMPTILE
360
14
  3
DIFFUSETILE
360
13
  3
OPACITYTILE
360
17
  3
REFLECTIONTILE
360
16
  3
REFRACTIONTILE
360
18
  3
SPECULARTILE
360
15
  0
DICTIONARY
  5
22
330
21
100
AcDbDictionary
280
     1
281
     1
  3
BUMPTILE
360
24
  3
DIFFUSETILE
360
23
  3
OPACITYTILE
360
27
  3
REFLECTIONTILE
360
26
  3
REFRACTIONTILE
360
28
  3
SPECULARTILE
360
25
  0
DICTIONARY
  5
B4
330
65
100
AcDbDictionary
280
     1
281
     1
  3
ACAD_ROUNDTRIP_2008_TABLESTYLE_CELLSTYLEMAP
360
B5
  0
XRECORD
  5
1C
102
{ACAD_REACTORS
330
1A
102
}
330
1A
100
AcDbXrecord
280
     1
270
     1
271
     1
  0
XRECORD
  5
1B
102
{ACAD_REACTORS
330
1A
102
}
330
1A
100
AcDbXrecord
280
     1
270
     1
271
     1
  0
XRECORD
  5
1F
102
{ACAD_REACTORS
330
1A
102
}
330
1A
100
AcDbXrecord
280
     1
270
     1
271
     1
  0
XRECORD
  5
1E
102
{ACAD_REACTORS
330
1A
102
}
330
1A
100
AcDbXrecord
280
     1
270
     1
271
     1
  0
XRECORD
  5
20
102
{ACAD_REACTORS
330
1A
102
}
330
1A
100
AcDbXrecord
280
     1
270
     1
271
     1
  0
XRECORD
  5
1D
102
{ACAD_REACTORS
330
1A
102
}
330
1A
100
AcDbXrecord
280
     1
270
     1
271
     1
  0
XRECORD
  5
14
102
{ACAD_REACTORS
330
12
102
}
330
12
100
AcDbXrecord
280
     1
270
     1
271
     1
  0
XRECORD
  5
13
102
{ACAD_REACTORS
330
12
102
}
330
12
100
AcDbXrecord
280
     1
270
     1
271
     1
  0
XRECORD
  5
17
102
{ACAD_REACTORS
330
12
102
}
330
12
100
AcDbXrecord
280
     1
270
     1
271
     1
  0
XRECORD
  5
16
102
{ACAD_REACTORS
330
12
102
}
330
12
100
AcDbXrecord
280
     1
270
     1
271
     1
  0
XRECORD
  5
18
102
{ACAD_REACTORS
330
12
102
}
330
12
100
AcDbXrecord
280
     1
270
     1
271
     1
  0
XRECORD
  5
15
102
{ACAD_REACTORS
330
12
102
}
330
12
100
AcDbXrecord
280
     1
270
     1
271
     1
  0
XRECORD
  5
24
102
{ACAD_REACTORS
330
22
102
}
330
22
100
AcDbXrecord
280
     1
270
     1
271
     1
  0
XRECORD
  5
23
102
{ACAD_REACTORS
330
22
102
}
330
22
100
AcDbXrecord
280
     1
270
     1
271
     1
  0
XRECORD
  5
27
102
{ACAD_REACTORS
330
22
102
}
330
22
100
AcDbXrecord
280
     1
270
     1
271
     1
  0
XRECORD
  5
26
102
{ACAD_REACTORS
330
22
102
}
330
22
100
AcDbXrecord
280
     1
270
     1
271
     1
  0
XRECORD
  5
28
102
{ACAD_REACTORS
330
22
102
}
330
22
100
AcDbXrecord
280
     1
270
     1
271
     1
  0
XRECORD
  5
25
102
{ACAD_REACTORS
330
22
102
}
330
22
100
AcDbXrecord
280
     1
270
     1
271
     1
  0
CELLSTYLEMAP
  5
B5
102
{ACAD_REACTORS
330
B4
102
}
330
B4
100
AcDbCellStyleMap
 90
        3
300
CELLSTYLE
  1
TABLEFORMAT_BEGIN
 90
        5
170
     1
 91
        0
 92
    32768
 62
   257
 93
        1
300
CONTENTFORMAT
  1
CONTENTFORMAT_BEGIN
 90
        0
 91
        0
 92
      512
 93
        0
300

 40
0.0
140
1.0
 94
        5
 62
     0
340
55
144
0.25
309
CONTENTFORMAT_END
171
     0
 94
        0
309
TABLEFORMAT_END
  1
CELLSTYLE_BEGIN
 90
        1
 91
        1
300
_TITLE
309
CELLSTYLE_END
300
CELLSTYLE
  1
TABLEFORMAT_BEGIN
 90
        5
170
     1
 91
        0
 92
        0
 62
   257
 93
        1
300
CONTENTFORMAT
  1
CONTENTFORMAT_BEGIN
 90
        0
 91
        0
 92
      512
 93
        0
300

 40
0.0
140
1.0
 94
        5
 62
     0
340
55
144
0.18
309
CONTENTFORMAT_END
171
     0
 94
        0
309
TABLEFORMAT_END
  1
CELLSTYLE_BEGIN
 90
        2
 91
        1
300
_HEADER
309
CELLSTYLE_END
300
CELLSTYLE
  1
TABLEFORMAT_BEGIN
 90
        5
170
     1
 91
        0
 92
        0
 62
   257
 93
        1
300
CONTENTFORMAT
  1
CONTENTFORMAT_BEGIN
 90
        0
 91
        0
 92
      512
 93
        0
300

 40
0.0
140
1.0
 94
        2
 62
     0
340
55
144
0.18
309
CONTENTFORMAT_END
171
     0
 94
        0
309
TABLEFORMAT_END
  1
CELLSTYLE_BEGIN
 90
        3
 91
        2
300
_DATA
309
CELLSTYLE_END
  0
ENDSEC
  0
EOF
